<svg width="268" height="355" viewBox="0 0 268 355" fill="none" xmlns="http://www.w3.org/2000/svg">
<path d="M165.789 44.0202C159.371 44.761 153.671 45.0324 148.04 46.0937C109.609 53.7712 82.8352 75.4891 65.2152 108.095C55.7871 125.442 52.0638 143.738 55.0265 162.622C57.8542 180.537 66.4348 195.307 81.421 206.282C107.646 225.336 145.568 221.109 168.857 196.601C179.295 185.609 186.121 172.69 190.912 159.095C202.241 126.367 201.649 94.5794 188.609 63.5175C187.88 61.5443 187.217 59.7506 186.223 57.06C188.387 57.4835 189.96 57.5139 191.469 57.9757C211.481 64.4434 226.539 76.8195 236.766 93.6307C265.205 140.408 265.345 189.081 235.937 238.682C219.866 265.823 196.034 285.842 164.1 296.011C140.935 303.348 117.229 306.807 93.2452 306.496C91.0173 306.504 88.9195 306.26 86.6254 306.088C85.7077 306.019 84.92 305.699 83.411 305.237C84.716 303.939 85.6285 302.787 86.7399 302.172C93.9942 297.657 101.185 293.573 108.439 289.057C110.466 287.901 112.622 286.492 114.187 284.691C115.166 283.717 115.744 281.057 115.02 280.305C114.164 279.195 111.803 278.844 110.098 278.455C109.377 278.314 108.528 279.035 107.809 279.504C94.4755 287.489 81.2082 295.654 67.9409 303.818C61.2091 307.937 60.8295 311.135 66.2234 316.073C67.5387 317.218 68.5915 318.256 70.1032 319.329C83.5089 328.442 96.9146 337.555 110.384 346.236C114.524 348.988 119.316 351.091 124.042 353.014C126.142 353.869 128.765 354.326 131.123 354.067C132.433 353.99 134.524 352.402 134.911 351.036C135.365 349.849 134.113 348.273 133.583 346.838C133.384 346.3 132.662 346.159 131.941 346.018C117.111 340.897 105.145 331.455 92.7259 323.201C89.4401 320.949 86.4169 318.805 81.882 315.588C84.2399 315.328 85.0912 315.217 85.8126 315.358C109.738 317.322 133.444 313.863 156.81 307.675C206.883 294.676 238.79 262.703 256.754 218.35C271.279 182.199 270.668 146.136 256.892 111.269C250.401 94.9122 240.903 80.0741 227.092 68.0529C215.254 57.749 201.397 50.4335 185.264 47.221C180.673 46.2672 177.912 44.2293 175.08 40.7908C169.679 34.0206 164.081 27.323 157.57 21.7779C129.224 -3.01631 91.4677 -6.18926 56.2997 13.9414C23.0918 32.7362 4.07476 60.3539 0.818665 96.2143C0.191897 102.97 1.53042 109.61 2.28013 116.469C2.48671 118.839 3.8072 121.205 4.99514 123.212C6.0505 124.861 8.15094 125.716 10.1111 124.38C11.3524 123.513 11.9998 121.643 12.6497 120.384C12.9097 119.88 12.4483 119.235 12.2495 118.697C6.34003 100.29 10.2622 82.5314 18.8389 65.2954C30.2754 42.5175 48.2886 25.4641 73.6714 15.6768C95.5212 7.19509 116.298 8.48757 136.128 18.0811C147.881 23.9311 159.587 33.8762 165.789 44.0202ZM182.16 72.628C190.448 95.6602 191.663 119.472 185.671 143.703C182.065 158.695 176.162 172.904 166.387 185.69C142.794 216.018 101.115 214.906 79.8527 191.775C68.662 179.601 63.2931 165.072 64.075 148.474C65.7101 116.678 81.8545 91.5491 109.161 71.8769C126.407 59.3881 146.04 53.3567 167.271 53.4622C171.726 53.4467 174.288 54.9464 175.81 58.4614C177.862 63.4113 179.978 67.9299 182.16 72.628Z" fill="#FE9300"/>
</svg>
