<svg width="168" height="60" viewBox="0 0 168 60" fill="none" xmlns="http://www.w3.org/2000/svg">
<path d="M3.5334 38.45C3.60007 38.35 3.60007 38.1167 3.5334 37.75C3.40007 36.55 3.3834 35.7167 3.4834 35.25C3.35007 33.45 3.30007 32.4 3.3334 32.1C3.40007 31.8 3.50007 31.6333 3.6334 31.6C3.50007 31.4 3.36673 30.6667 3.2334 29.4C3.1334 28.1333 3.11673 27.2833 3.1834 26.85C3.11673 26.5833 3.10007 26.2667 3.1334 25.9C3.16673 25.5 3.21673 25.2333 3.2834 25.1C3.21673 25.0333 3.16673 24.7833 3.1334 24.35V22.1L3.2334 20.8V19.7L3.5334 18.15C3.4334 17.9833 3.51673 17.6833 3.7834 17.25C3.45007 16.55 3.80007 15.6833 4.8334 14.65C4.86673 14.5833 5.25007 14.3667 5.9834 14C6.5834 13.9667 6.9834 13.9667 7.1834 14C7.41673 14.0333 7.75007 14.0667 8.1834 14.1C8.65007 14.1333 9.00007 14.1833 9.2334 14.25C9.8334 14.45 10.1334 14.9833 10.1334 15.85V16.7C10.2001 17.9 10.2334 18.8 10.2334 19.4V20.5C10.2334 20.9333 10.2001 21.1833 10.1334 21.25C10.1667 21.3833 10.1667 21.7 10.1334 22.2V23.05C10.0334 24.0833 10.0001 24.6833 10.0334 24.85L9.6834 27.5C9.95007 27.6 10.9001 27.65 12.5334 27.65H15.0334C16.5001 27.65 17.4167 27.65 17.7834 27.65C18.1834 27.6167 18.4334 27.5 18.5334 27.3C18.6667 27.1 18.7667 26.8333 18.8334 26.5C18.9001 26.1667 18.9501 25.7833 18.9834 25.35C19.0167 24.9167 19.0501 24.65 19.0834 24.55C19.2834 24.3833 19.3334 23.6667 19.2334 22.4C19.2334 22.3 19.3001 22.05 19.4334 21.65C19.4334 21.1833 19.5001 20.65 19.6334 20.05C19.6334 19.4167 19.7334 18.8667 19.9334 18.4C20.1667 17.9 20.3334 17.4833 20.4334 17.15C20.6001 16.5833 21.0001 16.1 21.6334 15.7C22.4667 15.1 23.2667 14.7167 24.0334 14.55H24.9334C25.8334 14.7167 26.1334 15.5667 25.8334 17.1C25.8334 17.6 25.7001 18.25 25.4334 19.05C25.1334 20.6167 24.9834 21.6333 24.9834 22.1C24.9834 22.5667 24.8501 23.4167 24.5834 24.65C24.6501 25.2833 24.6501 25.7 24.5834 25.9C24.5501 26.1 24.5334 26.35 24.5334 26.65C24.4667 27.3833 24.4334 27.8833 24.4334 28.15C24.3667 29.15 24.3334 29.95 24.3334 30.55C24.3334 31.15 24.2834 31.8 24.1834 32.5C24.1834 33.2 24.0667 33.9167 23.8334 34.65L23.6834 37.85C23.6834 38.0833 23.8001 39.8 24.0334 43C24.2334 43.2 24.3001 43.6 24.2334 44.2C24.1667 44.7667 24.0501 45.1667 23.8834 45.4C23.7167 45.6333 23.5334 45.7667 23.3334 45.8C23.1667 45.8333 22.9001 45.85 22.5334 45.85C21.7667 46.2833 21.1501 46.45 20.6834 46.35C20.2834 46.35 19.8667 46.2167 19.4334 45.95C18.7334 45.5833 18.2834 45.1333 18.0834 44.6C18.0834 44.3667 18.0334 44.0833 17.9334 43.75C17.8667 43.4167 17.8667 43.0667 17.9334 42.7C18.0001 42.3 18.0167 41.8833 17.9834 41.45C17.9834 41.0167 17.9834 40.5167 17.9834 39.95L18.0334 39.35C17.9667 39.2167 18.0001 39 18.1334 38.7C18.2667 38.4 18.2834 38.1667 18.1834 38V36.65L18.4334 34.1C18.1001 33.8667 18.0834 33.3167 18.3834 32.45L18.4834 32.05C18.0834 32.15 17.7167 32.2 17.3834 32.2C16.4501 32.4333 15.4167 32.55 14.2834 32.55L9.7834 32.4V32.95C9.71673 33.4833 9.70007 34.2833 9.7334 35.35V36.3C9.76673 37.1667 9.7834 38.4 9.7834 40C9.91673 41.7333 9.9834 42.9833 9.9834 43.75L9.9334 44.1C9.9334 44.3667 9.90007 44.6 9.8334 44.8C9.8334 45.4333 9.66673 45.8667 9.3334 46.1C9.0334 46.3333 8.5334 46.4833 7.8334 46.55C7.1334 46.6167 6.50007 46.4333 5.9334 46C5.1334 45.6 4.71673 45.2667 4.6834 45C4.65007 44.7333 4.55007 44.3833 4.3834 43.95C4.21673 43.6833 4.10007 43.3667 4.0334 43C4.0334 41.9333 4.01673 41.3333 3.9834 41.2C3.8834 41.0667 3.8334 40.8333 3.8334 40.5C3.8334 40.0667 3.7334 39.3833 3.5334 38.45ZM35.3701 33.5C35.4368 33.4333 35.8201 33.3667 36.5201 33.3C37.2535 33.2 38.1035 32.9 39.0701 32.4C39.1035 32.4 39.0868 32 39.0201 31.2C38.9201 29.8 38.8368 28.8 38.7701 28.2C38.7035 27.4 38.6368 26.8333 38.5701 26.5C38.5701 25.8667 38.3201 24.55 37.8201 22.55L35.6201 30C35.1535 32.0667 34.9701 33.3333 35.0701 33.8L35.3701 33.5ZM28.6201 34.95L28.9201 32.75C28.9201 32.3167 28.9868 31.8833 29.1201 31.45C29.1201 30.8833 29.4035 30.0333 29.9701 28.9C29.9701 28.8333 30.1201 28.4 30.4201 27.6C30.4201 27.5333 30.7368 26.55 31.3701 24.65L31.9701 23.2C31.9701 23.0667 32.0535 22.8167 32.2201 22.45C32.3868 22.05 32.5035 21.6667 32.5701 21.3C32.6701 20.9 32.7868 20.5167 32.9201 20.15C33.3868 19.25 33.8035 18.4833 34.1701 17.85C34.8701 16.5167 36.1701 15.9167 38.0701 16.05L39.6701 16.2C40.6701 16.4667 41.4368 16.75 41.9701 17.05C42.7368 17.35 43.2535 17.6833 43.5201 18.05C43.7868 18.3833 43.9035 18.95 43.8701 19.75C43.9035 20.15 44.0035 21.8833 44.1701 24.95C44.3368 28.0167 44.4201 29.5667 44.4201 29.6L44.6701 31.75C44.6701 31.95 45.0368 34.35 45.7701 38.95L46.8701 42.45C47.5368 44.3167 47.8868 45.3 47.9201 45.4C47.9868 45.4667 48.1368 45.8167 48.3701 46.45C48.7368 47.55 48.4201 48.2833 47.4201 48.65C46.5201 48.7833 45.8535 48.7 45.4201 48.4C45.2535 48.4 44.8701 48.25 44.2701 47.95C44.2035 47.7833 44.0035 47.6167 43.6701 47.45C43.3701 47.3167 43.1701 47.2 43.0701 47.1C42.7035 47 42.3701 46.4833 42.0701 45.55C41.9701 45.4833 41.7868 45.2167 41.5201 44.75C41.2868 44.2833 41.2201 43.9 41.3201 43.6C41.0868 43.3 40.9701 42.6833 40.9701 41.75C40.6701 41.25 40.5201 40.4667 40.5201 39.4C40.5201 38.3333 40.3535 37.5 40.0201 36.9C38.3201 37.6667 36.5035 38.0833 34.5701 38.15C34.2035 38.15 34.0201 38.2167 34.0201 38.35C34.0201 38.65 33.9201 39.1833 33.7201 39.95L32.8701 45.45C33.2035 47.9167 32.9035 49.2167 31.9701 49.35C31.7035 49.35 31.2535 49.4167 30.6201 49.55C30.0201 49.6833 29.5201 49.5667 29.1201 49.2C28.3535 48.7667 27.8035 48.3167 27.4701 47.85C27.1701 47.4167 27.0368 46.9167 27.0701 46.35C27.1035 45.8833 27.1868 44.8833 27.3201 43.35C27.3868 43.2833 27.4035 42.9167 27.3701 42.25C27.3701 41.55 27.4201 41.0167 27.5201 40.65L28.3201 37.55C28.4201 37.4833 28.5535 36.9833 28.7201 36.05C28.6868 35.9833 28.6701 35.8167 28.6701 35.55L28.6201 34.95ZM51.16 29.6L50.31 25.1C50.0766 24.0667 49.9766 23.4833 50.01 23.35C50.0766 23.1833 50.0933 23.0833 50.06 23.05C50.06 22.9833 50.0433 22.8667 50.01 22.7C50.01 22.5333 49.9933 22.3333 49.96 22.1C49.7266 21.5667 49.5933 21.15 49.56 20.85C48.9266 19.15 48.6766 18 48.81 17.4C48.9766 16.8 49.46 16.4167 50.26 16.25C50.46 16.1833 50.9266 16.15 51.66 16.15C52.3933 16.15 52.8933 16.1833 53.16 16.25C53.46 16.3167 53.7933 16.6 54.16 17.1C54.66 17.7667 55.0433 19.35 55.31 21.85C55.5766 23.4833 55.7266 24.4167 55.76 24.65C55.8266 24.85 55.86 25.05 55.86 25.25C56.16 26.6833 56.31 27.4333 56.31 27.5V28.6C56.61 29.4 56.8266 30.2667 56.96 31.2C57.7933 35.7 58.1766 37.9833 58.11 38.05C58.21 39.6167 58.5433 39.75 59.11 38.45L59.46 37.35L59.91 36.45C60.21 35.25 60.3766 34.5833 60.41 34.45L61.11 32.25C61.11 32.2167 61.21 31.95 61.41 31.45C61.5766 30.9833 61.71 30.4333 61.81 29.8C61.9433 29.1667 62.01 28.8167 62.01 28.75C62.0433 28.65 62.11 28.5 62.21 28.3C62.5433 27.3667 62.71 26.6667 62.71 26.2C62.71 25.7 62.7766 25.1833 62.91 24.65C62.91 23.9833 62.9933 23.4 63.16 22.9C63.46 22.0333 63.5933 21.55 63.56 21.45C63.5266 21.3167 63.8766 20.2833 64.61 18.35C65.1433 17.0167 66.11 16.1333 67.51 15.7C68.11 15.5333 68.7433 15.45 69.41 15.45C70.0766 15.45 70.5266 15.5333 70.76 15.7C71.0266 15.8333 71.1766 16.1667 71.21 16.7C71.1433 16.9 71.0933 17.1167 71.06 17.35C71.06 17.55 71.0433 17.7 71.01 17.8C69.81 21.4 69.11 23.35 68.91 23.65C68.71 23.95 68.61 24.1333 68.61 24.2C68.21 24.7 68.01 25.1 68.01 25.4L66.41 30.5L65.66 32.85C65.2266 33.7167 65.01 34.3167 65.01 34.65C65.01 34.9833 64.9266 35.3833 64.76 35.85C64.6266 36.2833 64.5266 36.5333 64.46 36.6C64.4266 36.6333 64.36 36.8333 64.26 37.2C64.16 37.5667 64.11 37.95 64.11 38.35C63.9766 38.4167 63.91 38.7 63.91 39.2C63.71 39.5333 63.5766 40.1167 63.51 40.95C63.3433 41.1833 63.2433 41.5833 63.21 42.15C62.8766 43.35 62.4433 44.2833 61.91 44.95C61.3766 45.6167 60.61 46.0333 59.61 46.2C58.61 46.4333 57.91 46.4333 57.51 46.2C57.3766 46.2333 57.16 46.2 56.86 46.1C56.6933 46.1 56.5766 46.0667 56.51 46C56.31 46 55.9766 45.9 55.51 45.7C55.0766 45.5 54.71 45.25 54.41 44.95C54.1433 44.65 53.8433 44.3 53.51 43.9C53.4433 43.7333 53.2433 43.4167 52.91 42.95C52.81 42.15 52.6766 41.6667 52.51 41.5C52.4433 41.3333 52.41 41.2167 52.41 41.15L52.11 40.05C52.1433 40.0833 52.1766 40.1333 52.21 40.2C52.1433 39.3 52.1266 38.55 52.16 37.95C52.0266 37.65 52.0266 37.1833 52.16 36.55C52.16 35.9833 52.0433 35.4 51.81 34.8C51.6433 34.3333 51.46 33.3167 51.26 31.75C51.26 30.9167 51.2266 30.2 51.16 29.6ZM80.5416 16.05L81.4416 15.65C81.5416 15.65 81.6916 15.6 81.8916 15.5C82.6249 15.1667 83.5749 14.9167 84.7416 14.75C84.9416 14.4833 85.3249 14.5667 85.8916 15C86.1583 15.1333 86.3249 15.2 86.3916 15.2C86.4916 15.2 86.6416 15.3333 86.8416 15.6C87.0749 15.8333 87.2249 16.0333 87.2916 16.2L87.8416 16.65C88.2416 16.8833 88.4749 17.0833 88.5416 17.25C88.6083 17.3833 88.6083 17.65 88.5416 18.05C88.5083 18.4167 88.3583 18.7667 88.0916 19.1C87.8583 19.4 87.6083 19.6 87.3416 19.7C86.2083 20.1333 85.4416 20.35 85.0416 20.35C84.6416 20.35 84.1583 20.5167 83.5916 20.85C83.0249 21.1833 82.5583 21.3833 82.1916 21.45C81.8249 21.5167 81.5416 21.6 81.3416 21.7C81.1749 21.8 80.9249 21.9667 80.5916 22.2C79.7916 22.6667 79.0083 22.9667 78.2416 23.1C78.3083 23.1 78.2749 23.2667 78.1416 23.6C78.0083 23.9333 77.8916 24.3833 77.7916 24.95C77.6916 25.4833 77.5083 26.1167 77.2416 26.85L76.6416 29.55C76.5083 30.15 76.4916 30.45 76.5916 30.45C76.6916 30.45 76.7749 30.3833 76.8416 30.25C78.6749 29.5167 79.7583 28.9667 80.0916 28.6C80.4583 28.2 80.9916 28.0333 81.6916 28.1L82.2916 27.95C82.3916 27.85 82.6083 27.8 82.9416 27.8C83.5416 27.6333 84.3249 28.0333 85.2916 29L85.1416 29.55C84.9749 29.8833 84.7083 30.25 84.3416 30.65C83.9749 31.05 83.6749 31.3 83.4416 31.4C83.2416 31.5 83.0916 31.5833 82.9916 31.65C82.8916 31.6833 82.8249 31.7 82.7916 31.7H82.6916C82.4916 31.9 82.2749 32.0667 82.0416 32.2C81.7749 32.4667 81.5083 32.6667 81.2416 32.8C80.9749 32.9333 80.7249 33.0833 80.4916 33.25C80.2583 33.3833 80.0749 33.4833 79.9416 33.55C79.8416 33.6167 79.7083 33.7 79.5416 33.8C79.3749 33.9 79.1749 34.0167 78.9416 34.15C78.7416 34.2833 78.6083 34.35 78.5416 34.35C78.4749 34.35 78.1083 34.65 77.4416 35.25C77.2416 35.25 76.9583 35.1667 76.5916 35C76.2249 34.8 75.9583 34.6 75.7916 34.4C75.5916 34.4 75.5583 34.85 75.6916 35.75C75.6916 35.9167 75.6249 36.3333 75.4916 37C75.3583 38.2333 75.3416 39.4667 75.4416 40.7C75.5416 41.9333 75.6916 42.6833 75.8916 42.95C76.0916 43.2167 76.3083 43.35 76.5416 43.35C77.0416 43.25 77.4249 43.1167 77.6916 42.95C77.9583 42.75 78.2083 42.6333 78.4416 42.6C78.6749 42.5667 78.9249 42.4333 79.1916 42.2C79.4916 41.9667 79.7083 41.85 79.8416 41.85C80.0083 41.85 80.4916 41.45 81.2916 40.65C81.3916 40.4833 81.6083 40.3167 81.9416 40.15C82.3083 39.95 82.4916 39.8 82.4916 39.7C82.5583 39.5667 82.7916 39.3833 83.1916 39.15C83.6249 38.8833 84.1249 38.7167 84.6916 38.65C85.2916 38.55 85.7416 38.5833 86.0416 38.75C86.5749 39.05 87.2249 39.5833 87.9916 40.35C88.1583 40.6167 88.1416 41.2 87.9416 42.1C87.7749 42.9667 87.4916 43.6 87.0916 44L86.6416 44.45C86.0749 45.1167 85.2416 45.8167 84.1416 46.55C83.2749 47.0167 82.8249 47.25 82.7916 47.25C82.5916 47.4167 82.4749 47.5167 82.4416 47.55C82.2749 47.85 82.1249 47.9667 81.9916 47.9C81.8916 47.8333 81.5916 47.8333 81.0916 47.9C80.6249 47.9667 80.2083 47.9667 79.8416 47.9C79.6416 47.8 79.3916 47.75 79.0916 47.75C78.7916 47.9167 77.6749 47.35 75.7416 46.05C75.4749 45.85 75.2916 45.75 75.1916 45.75C75.0916 45.75 74.8749 45.7167 74.5416 45.65C74.2749 45.5167 73.9583 45.3667 73.5916 45.2C72.4916 44.5667 71.8416 44.1333 71.6416 43.9C71.4416 43.6667 71.2083 43.4667 70.9416 43.3C70.6749 43.1333 70.5249 42.95 70.4916 42.75C70.4583 42.55 70.3583 42.3333 70.1916 42.1C70.1916 42.0333 70.0916 41.7333 69.8916 41.2C69.6249 40.7667 69.5416 40.45 69.6416 40.25C69.6749 40.05 69.6583 39.9 69.5916 39.8C69.5249 39.6667 69.4583 38.7 69.3916 36.9C69.3249 35.0667 69.3583 34.0667 69.4916 33.9C69.6249 33.7333 69.6916 33.3333 69.6916 32.7C69.6249 32.1 69.7083 31.65 69.9416 31.35C70.2083 31.05 70.3249 30.6667 70.2916 30.2C70.2583 29.7 70.3083 29.3167 70.4416 29.05C70.5749 28.9167 70.6916 28.4 70.7916 27.5L70.9916 26.6C71.3916 25.8 71.5916 25.2667 71.5916 25C71.5916 24.7 71.6583 24.35 71.7916 23.95C71.8249 23.8833 72.0249 23.3167 72.3916 22.25L72.7416 21.55L72.8916 20.95C73.7249 19.25 74.2416 18.2667 74.4416 18C74.4416 17.8667 74.6583 17.25 75.0916 16.15C75.0583 15.65 75.3249 15.3 75.8916 15.1C76.4583 14.8667 76.9749 14.8833 77.4416 15.15C77.9416 15.4167 78.2416 15.6 78.3416 15.7C78.4416 15.8 78.6416 15.9333 78.9416 16.1C79.0416 16.2667 79.5749 16.25 80.5416 16.05ZM104.86 37.65C104.76 37.2833 104.843 36.4667 105.11 35.2C105.11 34.4 105.143 33.7667 105.21 33.3V32.3C105.343 29.7667 105.41 28.2 105.41 27.6C105.41 25.7 105.577 24.2833 105.91 23.35L105.96 22.35C105.96 21.8833 105.977 21.4167 106.01 20.95C106.077 20.45 106.077 20.15 106.01 20.05L106.66 17.85L106.76 17.2C106.827 17.1 107.093 16.8167 107.56 16.35C107.66 16.25 108.043 16.2167 108.71 16.25C109.377 16.25 109.91 16.3 110.31 16.4C110.577 16.4 110.76 16.4833 110.86 16.65C110.96 16.7833 111.043 17.1 111.11 17.6C111.277 17.9667 111.31 18.5167 111.21 19.25C111.243 19.4167 111.26 19.5833 111.26 19.75C111.26 19.8833 111.243 20.0333 111.21 20.2C111.277 20.7667 111.243 21.45 111.11 22.25V23.5C111.11 24 111.043 24.5833 110.91 25.25L110.86 26.5C110.86 26.9667 110.793 27.3667 110.66 27.7C110.66 28.0667 110.56 28.75 110.36 29.75C110.36 30.2833 110.327 30.6167 110.26 30.75C110.227 30.85 110.26 31.2667 110.36 32C110.26 33 110.243 33.7833 110.31 34.35V35.35C110.31 36.9167 110.243 37.9667 110.11 38.5V38.8C110.11 39.4333 110.06 39.9167 109.96 40.25C110.027 41.0167 109.993 41.8333 109.86 42.7L109.76 43.9C109.293 46.2667 108.177 47.5833 106.41 47.85C104.277 48.15 102.577 47.5 101.31 45.9C101.21 45.6667 101.127 45.4167 101.06 45.15C100.893 45.1167 100.76 45.0333 100.66 44.9C100.227 44.2333 99.5933 42.7167 98.76 40.35C98.5266 39.8833 98.41 39.55 98.41 39.35C98.1433 38.8167 98.01 38.4 98.01 38.1C97.7433 37.5667 97.61 37.1667 97.61 36.9V36.1L97.16 34.95C97.16 34.7167 97.11 34.3667 97.01 33.9C96.6766 32.3333 96.46 30.8833 96.36 29.55C96.26 28.2167 96.1933 27.4333 96.16 27.2L95.91 28.3C95.7766 29.6 95.6266 30.6333 95.46 31.4C95.1933 32.8 95.06 34.0333 95.06 35.1C94.9933 35.7 94.96 36.2167 94.96 36.65C94.8933 36.85 94.86 37.1 94.86 37.4L94.71 40.8C94.51 42.0667 94.46 43.55 94.56 45.25C94.5266 46.2167 94.3266 46.85 93.96 47.15C93.5933 47.4833 93.0933 47.65 92.46 47.65C91.9266 47.4833 91.2933 47.2167 90.56 46.85C90.36 46.75 90.21 46.5 90.11 46.1C90.0433 45.6667 89.96 45.35 89.86 45.15C89.3933 44.6833 89.1266 44.15 89.06 43.55L88.66 40.05C88.66 39.75 88.6933 39.2 88.76 38.4C88.86 37.5667 88.8933 36.9 88.86 36.4C88.8266 35.9 88.9433 35.15 89.21 34.15C89.4433 33.5833 89.56 33 89.56 32.4L89.91 28.35C89.91 27.7833 89.9766 27.35 90.11 27.05C90.11 26.6833 90.16 26.2667 90.26 25.8C90.1933 25.6667 90.2433 25.4167 90.41 25.05L90.61 24.3C90.61 24.0667 90.6766 23.6833 90.81 23.15C90.9766 22.6167 91.0933 22 91.16 21.3C91.3266 20.1 91.9766 18.9333 93.11 17.8C93.3766 17.6333 93.66 17.2167 93.96 16.55C94.2266 16.2167 94.66 15.9167 95.26 15.65C95.8933 15.1833 96.56 15.2333 97.26 15.8C98.56 16.3 99.3266 17.2167 99.56 18.55L99.71 19.8C99.71 19.9667 99.8433 20.4167 100.11 21.15C100.11 21.4167 100.16 21.9 100.26 22.6C100.26 23 100.36 23.4833 100.56 24.05L101.21 27.65C101.31 27.8167 101.427 28.1333 101.56 28.6L101.91 29.95C101.977 30.6833 102.077 31.2833 102.21 31.75C102.377 32.2167 102.527 32.7167 102.66 33.25C102.827 33.7833 103.027 34.4667 103.26 35.3C103.493 36.1333 103.693 36.9167 103.86 37.65C104.06 38.35 104.31 38.9833 104.61 39.55C104.677 39.4167 104.71 39 104.71 38.3L104.86 37.65Z" fill="#FE9300"/>
<path fill-rule="evenodd" clip-rule="evenodd" d="M136.993 50.6766C136.985 50.6793 136.978 50.6819 136.97 50.6846C137.046 50.7516 138.109 51.3675 138.165 51.3675H138.352C138.315 50.9218 138.053 50.2445 138.053 49.9259C138.053 49.3982 138.382 47.5588 138.65 47.4602C138.65 47.1777 139.061 46.5318 139.193 46.2659C139.305 46.0383 139.683 45.2599 139.92 45.2599H139.957C140.043 45.2599 140.069 45.2863 140.069 45.3737V45.4116C140.069 45.7791 139.062 46.6305 139.057 47.3029C138.873 47.4417 138.812 47.9005 138.754 48.1346C138.716 48.2891 138.65 48.7781 138.65 48.9776V49.0155C138.65 50.3336 139.046 51.7186 139.687 52.3632C139.85 52.5274 140.061 52.7613 140.242 52.8991C140.484 53.0829 140.668 53.1572 140.914 53.3168C141.285 53.5576 141.983 53.8332 142.571 53.8332C142.571 53.8559 142.572 53.8786 142.572 53.9014C142.92 53.9292 143.268 53.9571 143.617 53.985C145.78 54.1797 147.143 52.4322 148.169 51.4022C148.463 51.1076 148.665 50.719 149.073 50.5375C149.422 50.3824 149.857 50.0378 150.123 49.7838C150.476 49.4479 150.671 49.2528 150.967 48.8576C151.263 48.4626 151.37 48.048 151.608 47.6878C151.608 47.5094 151.594 47.398 151.72 47.3463V46.6256C151.72 46.0056 151.664 46.0692 151.482 45.5394C151.415 45.3462 151.047 44.6338 151.047 44.5391V44.2736C151.047 43.9055 151.437 43.1252 151.593 42.8555C151.641 42.7729 151.98 42.414 152.056 42.3389C152.151 42.2451 152.371 41.7633 152.364 41.617C152.35 41.4641 152.336 41.3112 152.322 41.1583C152.296 41.1219 152.269 41.0855 152.242 41.0491C152.242 40.7931 152.002 40.3946 151.879 40.2424C151.774 40.1134 151.403 39.7214 151.234 39.7214H151.085C150.814 39.039 148.06 38.9609 147.463 38.5071C147.089 38.4693 146.716 38.4314 146.342 38.3936C145.996 38.282 146.043 37.6648 145.932 37.5591C145.855 37.4576 145.62 37.4803 145.596 37.4823C145.37 37.5061 145.145 37.5298 144.919 37.5536C144.883 37.5807 144.847 37.6078 144.812 37.6349C144.584 37.6349 143.505 37.7908 143.505 37.9005C143.505 38.1967 144.286 38.5127 144.543 38.6283C144.734 38.7139 145.65 39.1493 145.782 39.1523C145.806 39.2435 146.07 39.4558 146.118 39.4558C146.252 39.4558 146.523 39.7259 146.639 39.8372C146.777 39.9695 146.905 40.1134 147.043 40.2611C147.168 40.3931 147.687 41.0606 147.687 41.2388C147.687 41.9894 147.155 40.9819 146.949 40.7741C146.822 40.6456 146.246 40.1267 146.23 39.9869C146.11 39.9736 145.715 39.5881 145.533 39.4813C145.284 39.3348 145.022 39.1608 144.774 39.0384C144.599 38.9517 144.581 38.8977 144.378 38.8341C144.273 38.8012 144.068 38.6917 143.976 38.6359C143.823 38.5439 142.787 38.0143 142.571 38.0143H142.496C142.375 38.0143 141.807 38.2798 141.787 38.2798C141.476 38.2798 141.225 38.0902 140.891 38.0902H140.741C140.263 38.0902 139.444 38.3013 139.076 38.447C138.084 38.8399 137.45 39.3031 136.513 39.7125C136.201 39.8488 135.708 40.3895 135.514 40.4421C135.675 39.7378 137.341 38.8195 137.883 38.563C138.065 38.4773 138.125 38.4417 138.283 38.3621C138.606 38.1996 138.79 38.1747 139.132 38.048C139.258 38.0012 141.097 37.2556 140.592 37.2556C140.587 37.2556 140.178 37.1408 140.054 37.1188C139.836 37.0801 139.586 37.1031 139.359 37.1042C138.937 37.1063 138.462 37.028 138.015 37.028C137.777 36.9539 135.196 36.4327 134.954 35.5105C135.17 35.5617 135.507 35.8689 135.705 35.9611C136.286 36.2318 136.92 36.5496 137.565 36.6691C137.694 36.7294 138.051 36.8004 138.202 36.8004H138.8C138.9 36.8004 138.903 36.7822 138.986 36.7624C138.979 36.4379 138.597 36.3958 138.382 36.2929C138.145 36.2175 137.908 36.1422 137.672 36.0669C137.693 35.9678 138.415 36.0998 138.539 36.1132C138.649 36.1356 139.53 36.3566 139.659 36.3831C139.832 36.5536 140.19 36.4095 140.405 36.5727C140.631 36.5727 141.67 36.9164 141.805 37.0093C142.159 37.2518 143.1 37.0619 143.55 37.1337C143.751 37.1658 145.066 37.0898 145.282 37.0508C145.513 37.009 145.963 37.0107 146.125 36.9584C146.325 36.8936 146.663 36.7635 146.828 36.7245C146.814 36.0686 144.397 35.5378 144.326 35.3588C144.092 35.3588 143.369 35.0986 143.085 35.0263C142.509 34.8798 141.978 34.7365 141.446 34.6435C141.411 34.6164 141.375 34.5893 141.339 34.5622C140.982 34.5622 140.776 34.4991 140.457 34.4338C140.316 34.405 139.663 34.2587 139.584 34.2587C139.02 34.2587 138.504 34.0362 137.867 34.0301C137.515 34.0266 136.729 34.006 136.634 33.7656C136.417 33.7656 135.539 33.4933 135.291 33.4228C135.111 33.3717 134.022 33.1965 133.833 33.1965C133.659 33.1919 133.484 33.1873 133.31 33.1827C132.887 33.2126 132.464 33.2425 132.041 33.2724V33.3862C132.041 33.5643 132.776 33.7421 132.825 33.8793C133.322 33.8793 133.641 34.1828 134.02 34.1828H134.169C134.28 34.4617 135.103 34.181 135.14 34.5458L133.904 34.5298L133.79 34.474C133.394 34.3896 132.997 34.3052 132.601 34.2208C132.115 33.8904 130.771 33.7707 130.771 32.931C130.771 32.8532 130.835 32.7627 130.846 32.6275C131.035 32.6115 131.107 32.5137 131.182 32.5137H131.556C131.713 32.5137 132.14 32.6999 132.301 32.7423C132.513 32.7981 132.96 32.8171 133.236 32.8171H133.348V32.893C133.798 32.893 134.38 32.9559 134.807 33.004C135.12 33.0393 135.211 33.0335 135.491 33.1054C135.609 33.1356 136.102 33.2724 136.148 33.2724H136.26V33.3482H136.41C136.422 33.3482 136.882 33.5792 136.969 33.6144C137.248 33.726 137.465 33.6509 137.725 33.7192C138.027 33.7985 138.905 33.8414 139.29 33.8359C139.325 33.863 139.361 33.8901 139.397 33.9173C140.405 33.9173 143.695 34.4604 144.737 35.1691C145.029 35.1691 146.651 35.9084 147.004 36.0528C147.284 36.1675 147.642 36.5532 147.899 36.7369C148.364 37.0702 148.572 36.8004 149.18 36.8004C149.31 36.7122 149.968 36.5121 150.202 36.3966C150.451 36.2739 150.873 35.9749 151.057 35.7856C151.458 35.3733 152.018 34.5871 152.018 33.8035C152.018 33.632 152.103 32.7792 151.944 32.7792C151.944 32.2946 151.745 32.1714 151.72 32.0964C151.63 32.0011 151.697 32.0673 151.608 31.9446C151.546 31.636 150.472 30.4845 150.219 30.2826C149.927 30.05 149.67 29.8223 149.339 29.6212C149.282 29.5868 148.284 29.0135 148.284 29.3651V29.4788C148.284 29.7245 148.396 29.871 148.396 29.9341C148.396 30.0467 148.396 30.1594 148.396 30.2722C148.309 30.2859 148.222 30.2997 148.135 30.3134C148.111 30.0278 147.164 29.2267 146.918 29.0084C146.735 28.847 146.492 28.7006 146.346 28.5652C146.263 28.4893 145.828 28.1903 145.741 28.1556C145.665 28.1255 145.086 27.8498 145.065 27.8182C145.009 27.7366 144.995 27.6122 144.897 27.4955C144.823 27.4077 144.718 27.3335 144.625 27.2788C144.437 27.1687 144.115 27.0938 143.821 27.0761C143.301 27.0448 142.571 27.2028 141.969 27.1972C141.933 27.2231 141.897 27.249 141.861 27.2749C141.712 27.2888 141.563 27.3027 141.414 27.3165C141.09 27.3195 140.766 27.3224 140.442 27.3254C140.255 27.3098 140.069 27.2942 139.883 27.2786C139.844 27.1822 139.462 27.0302 139.363 26.934C139.186 26.7623 139.076 26.6771 138.825 26.5703C138.565 26.4599 138.576 26.3835 138.209 26.2853C138.073 26.2488 137.621 26.1607 137.567 26.0268C137.295 26.0268 137.294 25.9509 137.082 25.9509H135.999C135.766 25.9509 135.611 26.0667 135.252 26.0648C134.953 26.0633 134.711 26.0697 134.439 26.1108C134.188 26.1489 133.925 26.219 133.718 26.2505C133.338 26.3079 133.374 26.4755 133.087 26.482C133.037 26.5767 132.567 26.8972 132.448 27.009C132.237 27.2064 131.968 27.3152 131.72 27.4835C131.328 27.7494 130.678 28.2176 130.413 28.5836C130.314 28.7203 130.264 28.7509 130.157 28.8924C130.082 28.9912 129.965 29.1772 129.904 29.2423C129.712 29.448 129.637 29.8265 129.495 30.0412C129.268 30.5555 128.755 31.3537 128.755 31.9067C128.755 32.1791 128.556 32.4125 128.456 32.6654C128.382 32.9183 128.307 33.1712 128.232 33.4241C128.195 33.5632 128.158 33.7023 128.12 33.8414C128.119 33.9297 128.118 34.0182 128.117 34.1066L127.821 36.99H127.747V37.2176C127.747 37.9452 127.529 39.451 127.419 40.1847C127.343 40.6878 127.268 41.1779 127.225 41.6572C127.187 42.09 127 42.7161 127 43.0976C127 43.927 127.066 44.5791 127.187 45.4496V45.6392C127.264 45.6712 127.527 46.3921 127.586 46.5232C127.743 46.869 127.898 47.0617 128.083 47.3463C128.412 47.8539 128.919 48.2956 129.42 48.6429C129.557 48.7376 130.091 49.1115 130.227 49.1516C130.467 49.2227 130.479 49.2275 130.673 49.343C130.819 49.4297 131.024 49.4511 131.177 49.514C131.568 49.6747 132.788 49.99 133.311 50.0018C133.352 49.8971 133.751 49.7882 133.862 49.69C134.035 49.5372 134.19 49.4685 134.505 49.4703C135.161 49.474 135.581 49.3569 136.148 49.3569H136.671C136.772 49.3569 136.774 49.375 136.858 49.3948V49.5466C136.858 49.6535 136.739 49.7156 136.674 49.772C136.407 49.8045 136.052 49.9905 135.991 50.2244C135.998 50.2102 136.005 50.196 136.011 50.1818C136.339 50.3467 136.666 50.5116 136.993 50.6766H136.993ZM149.703 9.60074C149.703 9.7897 148.323 13.9812 148.221 14.1538C148.205 14.3432 148.188 14.5325 148.172 14.7219C147.581 15.124 147.181 16.309 146.955 17.1268C146.842 17.5374 146.044 19.6825 146.044 19.8431V20.1087C146.044 20.5174 147.5 20.2648 147.5 20.6018V20.7157C147.342 20.753 147.183 20.7721 147.167 20.9266C147.353 20.9574 147.539 20.9882 147.724 21.0191V21.2088C147.571 21.2218 147.641 21.2467 147.5 21.2467C146.907 21.2467 146.659 21.1732 146.271 21.5156C146.113 21.6552 146.01 21.7306 145.867 21.9015C145.735 22.0598 145.661 22.3153 145.559 22.3848C145.559 22.6081 145.353 23.168 145.335 23.5229C145.308 24.0198 145.226 24.211 145.319 24.7523C145.405 25.2552 145.413 25.4514 145.589 25.8434C145.646 25.9701 145.747 26.1913 145.829 26.2833C145.93 26.3978 146.19 26.4819 146.231 26.5956H146.641C147.002 26.5956 147.58 26.1868 147.829 26.0193C148.016 25.8938 148.139 25.742 148.294 25.5814C148.851 25.0074 149.629 23.4291 149.629 22.7641C149.629 22.6747 149.258 22.2797 149.172 22.2044C149.016 22.0688 148.663 21.9481 148.658 21.7019C148.702 21.6902 148.76 21.664 148.77 21.664C149.175 21.664 149.45 22.0813 149.591 22.0813C150.108 22.0813 150.527 21.305 150.756 20.9509C150.941 20.6674 151.458 19.7183 151.494 19.322C151.654 18.7273 151.815 18.1326 151.975 17.538C152.027 17.3327 152.079 17.1274 152.131 16.9221C151.904 16.578 151.076 16.3345 150.636 16.1642C150.363 16.0583 150.132 15.947 149.794 15.8814C149.523 15.8288 149.031 15.7595 149.031 15.4806C149.031 15.1492 149.351 15.215 149.554 15.215H149.815C149.917 14.8266 150.866 14.9874 151.309 14.9874C151.364 15.1257 151.795 15.2398 151.958 15.2766C152.256 15.3441 152.432 15.4806 152.691 15.4806C152.767 15.4806 152.919 15.2632 152.989 15.215C152.989 14.829 153.292 13.4426 153.475 13.3183C153.475 13.0631 154.284 11.2355 154.401 10.8447C154.608 10.1504 155.118 8.93302 155.118 8.12117C155.118 7.17495 154.224 6.30026 153.325 6.30026H152.952C152.558 6.30026 151.975 6.52778 151.719 6.67928C151.061 7.06968 151.315 6.96829 150.87 7.48555C150.749 7.62687 150.332 8.29744 150.243 8.48013C150.159 8.65544 149.8 9.56104 149.703 9.60065V9.60074ZM139.696 5.88307C139.464 6.23456 139.323 8.92766 139.336 9.65633C139.418 9.72629 139.501 9.79625 139.584 9.86625H139.696C139.78 9.86625 139.778 9.89628 139.846 9.93941C140.069 9.95293 140.293 9.9665 140.517 9.98007C140.517 10.5155 139.877 10.3379 139.733 10.9664C139.501 10.9861 138.9 11.4407 138.836 11.6476C138.696 12.0937 138.576 12.3761 138.576 12.977C138.576 14.0676 138.416 14.9503 138.43 16.0497C138.43 16.4355 138.232 17.6083 138.453 18.1706C138.527 18.358 138.647 18.4776 138.837 18.4776H139.024V18.5913C139.024 18.777 138.379 19.0868 138.226 19.4126C138.114 19.6527 137.904 20.3931 137.904 20.7158C137.894 21.0962 137.885 21.4768 137.876 21.8573C137.935 22.3366 137.994 22.816 138.053 23.2953C138.219 23.5474 138.292 23.7408 138.558 23.92C138.736 24.0396 139.12 24.2058 139.397 24.2058H139.659C140.815 24.2058 141.862 22.0636 141.862 20.8295C141.884 20.8293 141.907 20.8291 141.93 20.829C141.944 20.6142 141.959 20.3994 141.974 20.1847V20.0708C141.974 19.4203 141.927 19.0893 141.262 19.011C141.161 18.9992 140.73 19.0343 140.595 19.0491C140.21 19.0915 139.798 19.2363 139.36 19.2363C139.299 19.2363 139.248 19.2136 139.248 19.1604C139.248 18.8959 139.811 18.6549 140.04 18.5991C140.719 18.433 141.126 18.2879 141.824 18.2879C141.85 18.3519 142.021 18.4396 142.086 18.4396C142.544 18.4396 142.155 18.0223 141.899 18.0223C141.563 18.0208 141.226 18.0193 140.89 18.0178C140.604 18.0573 140.318 18.0967 140.032 18.1361C139.947 18.1495 139.931 18.1086 139.808 18.0982V17.9465C140.017 17.8898 140.305 17.5292 140.741 17.5292C141.388 17.5292 142.235 17.8702 142.235 17.1119C142.235 17.0184 142.689 15.9841 142.743 15.6937C142.834 15.2164 143.094 14.5488 143.089 14.0725C143.115 14.0361 143.142 13.9997 143.169 13.9633C143.169 13.402 143.307 12.9551 143.185 12.3913C143.001 11.5458 142.56 11.5238 142.496 11.3531C142.347 11.338 142.198 11.3229 142.048 11.3078C141.34 11.2243 140.41 11.4975 139.776 11.4962C139.762 11.4208 139.748 11.3453 139.733 11.2699C140.129 11.0573 140.33 11.0043 140.928 11.0043C141.144 11.0043 142.235 11.1776 142.235 11.0423C142.235 10.7858 141.101 10.687 140.816 10.6629V10.5491C140.816 10.3636 141.454 10.3594 141.6 10.3594C141.836 10.3594 142.093 10.4208 142.235 10.511C142.503 10.6808 142.484 10.6563 142.833 10.7388C142.967 10.4814 143.268 10.1388 143.353 9.82545C143.444 9.48546 143.618 9.18325 143.714 8.75152C143.881 8.00581 144.065 7.06573 144.065 6.18656V6.0348C144.065 5.52596 143.969 4.8019 143.877 4.3671C143.772 3.87662 143.131 3.44318 143.094 3.30349C142.851 3.29796 142.599 3 142.31 3H141.414C141.28 3 140.762 3.2904 140.659 3.37187C140.511 3.4896 140.259 3.85607 140.161 4.04196C139.983 4.38115 139.696 5.39197 139.696 5.88307V5.88307ZM161.988 12.0285H161.801C161.191 12.0285 160.418 12.5531 160.086 12.8653C159.912 13.0286 159.161 14.0968 159.014 14.3554C158.921 14.518 158.611 14.9964 158.493 15.1167C158.418 15.1942 158.109 15.7873 158.023 15.9282C157.864 16.1873 157.246 17.4365 157.246 17.7567C157.061 17.8824 156.486 18.8683 156.462 19.1603C156.552 19.1623 157.341 19.3608 157.455 19.4027C157.464 19.4059 157.859 19.5925 157.888 19.6081C158.049 19.6962 158.172 19.8588 158.254 19.881V19.9949C157.691 20.0425 157.484 19.7293 157.059 19.7293C157.136 20.064 157.545 20.1913 157.545 20.4501V20.5639H157.358C156.932 20.5639 156.284 19.9949 155.939 19.9949C155.798 19.9949 154.638 21.7755 154.457 22.0171C154.214 22.3405 153.169 23.8741 153.141 24.2392C153.302 24.3165 153.463 24.3939 153.624 24.4712V24.6988C153.493 24.7297 153.498 24.7747 153.362 24.7747H153.25C152.665 24.7747 152.591 24.4059 152.578 25.154C151.97 25.2054 151.172 26.7474 150.897 27.2019C150.675 27.5708 150.263 28.1464 150.263 28.7199V28.8717C150.263 29.4745 150.868 30.1236 151.458 30.1236C151.546 30.1275 151.634 30.1315 151.721 30.1355C151.932 30.1062 152.143 30.0769 152.354 30.0477C152.407 29.9141 152.539 29.9618 152.691 29.8589C152.816 29.7747 152.893 29.7203 153.013 29.6164C153.13 29.5148 153.572 29.1923 153.586 29.0614C153.808 29.0426 154.211 28.6247 154.372 28.4932C154.388 28.4793 154.645 28.1896 154.692 28.1362C154.771 28.047 154.856 27.7752 154.856 27.6198V27.4681C154.856 27.298 154.749 27.2564 154.744 27.0128C154.522 26.9525 154.546 26.6008 154.377 26.4811C154.362 26.3169 154.348 26.1528 154.333 25.9886C154.221 25.818 153.736 25.4299 153.736 25.2678C153.736 25.1804 153.762 25.154 153.848 25.154H154.072C154.494 25.154 154.725 25.594 155.05 25.7155C155.465 25.8706 155.781 26.4059 155.939 26.4059C156.159 26.4059 156.675 25.8929 156.836 25.7616C157.128 25.523 157.295 25.1891 157.531 24.8744C157.742 24.5932 158.59 23.1731 158.59 22.802C158.59 22.7082 158.078 22.1325 158.067 21.664C158.511 21.7015 158.625 22.3848 158.814 22.3848C158.886 22.3848 158.964 22.3171 158.964 22.2709C158.964 21.7461 158.308 21.4047 158.217 21.057C158.262 21.031 158.257 21.0191 158.329 21.0191C158.476 21.0191 159.146 21.4835 159.188 21.5881H159.3C159.383 21.5881 159.454 21.7019 159.748 21.7019C159.771 21.6368 159.936 21.4969 160.014 21.3659C160.118 21.1945 160.196 21.1433 160.196 20.9053C160.372 20.6375 160.407 20.2292 160.538 20.001C160.598 19.8961 160.695 19.6752 160.745 19.6046C160.855 19.4512 160.841 19.3092 160.937 19.1543C161.181 18.7583 161.456 17.7943 161.784 17.5115C162.013 17.3146 162.194 17.4855 162.533 17.0201C162.688 16.8061 162.875 16.4876 163.008 16.2512C163.168 15.9679 163.303 15.7347 163.438 15.4365C163.539 15.2157 163.688 14.6347 163.772 14.4928C163.8 14.2909 163.827 14.0891 163.855 13.8873V13.8493C163.855 13.3991 163.692 12.873 163.473 12.6441C163.259 12.4198 162.91 12.0285 162.511 12.0285H162.399V11.9526H161.988V12.0285V12.0285ZM162.324 41.9975C162.161 42.0012 161.232 42.6054 161.125 42.7142C161.088 42.7516 161.014 42.892 160.915 42.9933C160.825 43.0847 160.751 43.1407 160.65 43.2181C159.855 43.8326 160.351 43.1355 159.86 43.1355C159.63 43.1355 159.369 43.5504 159.247 43.7272C159.15 43.8675 158.66 44.1548 158.441 44.1598C158.446 43.9012 158.515 44.0414 158.515 43.8943V43.8184C158.515 43.7451 158.449 43.6666 158.403 43.6666C157.889 43.6666 157.581 44.7681 157.324 44.7034C156.79 44.6229 156.255 44.5423 155.721 44.4618C155.719 44.4749 155.717 44.4881 155.715 44.5012C155.689 44.4887 155.662 44.4763 155.636 44.4638C155.003 44.5394 154.369 44.6152 153.736 44.6909C153.298 44.9887 152.541 45.8068 152.541 46.5118C152.41 46.7111 152.392 46.9435 152.392 47.2705C152.392 47.5657 152.504 47.7481 152.504 48.0671C152.723 48.2164 152.532 48.311 152.734 48.4019C152.83 48.4451 153.06 48.5693 153.139 48.57C153.288 48.5541 153.437 48.5382 153.586 48.5223C154.064 48.1974 154.639 47.9904 155.327 47.8623C155.653 47.8014 156.065 47.7429 156.358 47.6958C156.569 47.6617 157.278 47.4981 157.358 47.4981C157.432 47.4981 157.57 47.5356 157.594 47.4573C158.22 47.2168 158.079 47.2085 158.426 46.6863C158.563 46.4802 158.558 46.2267 158.777 46.2083C158.796 46.2933 158.814 46.2955 158.814 46.3979C158.812 46.4103 158.81 46.4227 158.809 46.4351C158.748 46.9285 158.688 47.4219 158.628 47.9154C158.61 48.035 158.654 48.0505 158.668 48.1739C158.704 48.1888 158.74 48.2038 158.777 48.2189C159.026 48.1598 159.311 48.01 159.673 48.0353C160.482 48.0712 161.291 48.1071 162.1 48.143C162.554 48.143 162.887 48.2189 163.407 48.2189C163.897 48.2189 164.553 47.9154 165.017 47.9209C165.053 47.8937 165.089 47.8666 165.125 47.8395C165.633 47.8395 166.724 47.1942 167.036 46.9359C167.518 46.5361 168 45.9058 168 45.0323C168 43.8804 167.45 43.1023 166.737 42.6735C166.289 42.4038 166.134 42.226 165.537 42.0715C165.08 41.9531 164.665 41.7319 164.042 41.7319C163.867 41.7287 163.692 41.7254 163.518 41.7222C163.12 41.8139 162.722 41.9057 162.324 41.9975V41.9975ZM128.68 10.094V10.8148C128.68 11.5421 129.219 11.6494 129.8 11.6494C130.05 11.6494 130.547 11.5049 130.547 11.8011C130.429 11.9743 130.506 11.9286 130.19 12.007C129.935 12.0702 129.725 12.1046 129.464 12.1046C129.379 12.1046 129.054 11.8942 129.054 12.1046C129.054 12.3348 129.11 12.7116 129.352 12.7116C129.502 12.7116 129.788 12.4081 129.913 12.4081C130.045 12.4081 130.062 12.4405 130.062 12.5598C130.062 12.7228 129.874 12.7414 129.747 12.8093C129.179 13.1146 129.256 14.2858 129.166 14.8739V15.367C129.166 16.0413 129.386 17.0034 129.643 17.4235C129.924 17.8816 130.236 18.7053 130.921 18.7053C131.293 18.7053 131.588 18.5156 131.742 18.5156C132.517 18.5156 131.774 19.0088 131.481 19.0088C131.243 19.0088 130.809 19.2657 130.809 19.5399C130.809 19.8579 131.207 22.4264 131.288 22.6187C131.333 22.7249 131.457 23.1724 131.483 23.2935C131.547 23.5904 131.61 23.7198 131.713 23.9699C131.802 24.185 131.872 24.3343 132.103 24.4467C132.317 24.5516 132.486 24.6611 132.788 24.6611H132.937C133.187 24.6611 133.826 24.1709 133.916 23.9861C134.086 23.632 134.245 23.1261 134.245 22.6136C134.245 22.0204 134.305 21.5068 134.247 20.9787C134.215 20.6888 134.218 20.5012 134.162 20.2302C134.046 19.6659 133.912 19.2041 133.796 18.6294H133.721C133.721 18.2375 133.512 18.0469 133.39 17.8275C133.198 17.4797 133.423 17.1912 133.423 16.8844C133.423 16.5563 133.319 15.7434 133.257 15.4215C133.162 14.9288 133.045 14.5818 132.914 14.1386C132.793 13.7304 132.617 13.3573 132.467 12.9616C132.386 12.75 132.312 12.5687 132.238 12.3976C132.129 12.1468 132.192 11.9672 132.138 11.6645C132.053 11.188 132.111 10.5398 132.078 10.0943C132.037 9.53693 132.005 9.0407 131.967 8.5756C131.898 7.72809 131.215 6.94541 130.323 6.94541C129.022 6.94541 128.68 8.73962 128.68 10.094V10.094ZM146.305 37.5213V37.5592C146.305 37.7064 146.374 37.5661 146.38 37.8247C146.562 37.8741 146.609 38.0887 146.949 38.195C147.203 38.2747 147.529 38.2185 147.836 38.2417C148.453 38.2884 148.739 38.6214 149.367 38.6214H150.413C150.595 38.6214 150.69 38.5686 150.778 38.4613C150.808 38.4244 150.935 38.12 150.935 38.0903V37.9385C150.935 37.8067 150.861 37.8806 150.861 37.7489V37.6351C150.71 37.5994 150.687 37.5213 150.599 37.5213C150.332 37.5213 150.097 37.673 150.039 37.673H149.74C149.319 37.673 149.008 37.3755 148.694 37.3998L148.166 37.4389L148.023 37.5592C147.766 37.5592 147.735 37.6351 147.575 37.6351C147.405 37.6351 146.908 37.4776 146.865 37.3695H146.454C146.367 37.3695 146.305 37.4325 146.305 37.5213V37.5213ZM144.625 33.8036L144.625 33.9128L144.961 33.9554H145.11C145.743 33.9554 145.885 33.3941 146.235 33.387L146.193 33.7277L146.184 33.8803L146.23 34.4865C146.377 34.7093 146.657 35.5486 146.94 35.5486H147.052C147.138 35.5486 147.164 35.5222 147.164 35.4348V35.321C147.164 34.6256 146.206 34.027 146.566 33.3104C146.566 32.6741 146.93 32.3688 146.94 31.9068C146.902 31.9352 146.585 32.4263 146.502 32.5244C146.335 32.7233 146.161 32.8805 145.971 33.0473C145.695 33.2904 145.103 33.7928 144.625 33.8036V33.8036ZM140.218 32.0965L140.334 32.9674L140.517 33.3484C140.634 33.3582 140.65 33.3863 140.779 33.3863C140.931 33.3863 141.003 33.1341 141.003 32.969V32.4759C141.003 32.328 140.819 32.0936 140.814 31.7566C140.811 31.4416 140.839 31.1448 140.779 30.8826C140.46 30.9095 140.16 31.6938 140.218 32.0965V32.0965ZM135.999 30.6171L135.99 31.2249L136.036 31.7172C136.23 31.8492 136.077 31.8617 136.372 32.0207C136.596 31.9678 136.671 31.9196 136.671 31.6413V31.3757C136.671 31.1938 136.544 30.8344 136.529 30.647C136.514 30.4553 136.634 30.1873 136.634 29.8963C136.835 29.8139 136.651 29.4945 136.268 29.942C136.187 30.0362 135.999 30.4425 135.999 30.6171V30.6171Z" fill="#FE9300"/>
</svg>
