<svg width="23" height="23" viewBox="0 0 23 23" fill="none" xmlns="http://www.w3.org/2000/svg">
<path d="M16.95 4.28129C16.6906 4.28129 16.437 4.3582 16.2214 4.5023C16.0057 4.6464 15.8376 4.85122 15.7384 5.09085C15.6391 5.33048 15.6131 5.59417 15.6637 5.84856C15.7143 6.10295 15.8392 6.33663 16.0227 6.52003C16.2061 6.70344 16.4397 6.82834 16.6941 6.87894C16.9485 6.92955 17.2122 6.90357 17.4518 6.80432C17.6915 6.70506 17.8963 6.53697 18.0404 6.32131C18.1845 6.10564 18.2614 5.85209 18.2614 5.59271C18.2614 5.2449 18.1232 4.91133 17.8773 4.66539C17.6314 4.41945 17.2978 4.28129 16.95 4.28129ZM21.9771 6.926C21.9559 6.01925 21.786 5.12213 21.4744 4.27036C21.1965 3.54157 20.764 2.88164 20.2067 2.336C19.6655 1.77583 19.0041 1.34606 18.2723 1.07921C17.4228 0.75809 16.5247 0.584379 15.6167 0.565571C14.4583 0.5 14.0867 0.5 11.1141 0.5C8.14155 0.5 7.76998 0.5 6.61155 0.565571C5.70355 0.584379 4.80543 0.75809 3.9559 1.07921C3.22552 1.34877 2.56462 1.77816 2.02155 2.336C1.46138 2.87716 1.03161 3.53862 0.764761 4.27036C0.443637 5.11988 0.269926 6.018 0.251118 6.926C0.185547 8.08443 0.185547 8.456 0.185547 11.4286C0.185547 14.4011 0.185547 14.7727 0.251118 15.9311C0.269926 16.8391 0.443637 17.7373 0.764761 18.5868C1.03161 19.3185 1.46138 19.98 2.02155 20.5211C2.56462 21.079 3.22552 21.5084 3.9559 21.7779C4.80543 22.0991 5.70355 22.2728 6.61155 22.2916C7.76998 22.3571 8.14155 22.3571 11.1141 22.3571C14.0867 22.3571 14.4583 22.3571 15.6167 22.2916C16.5247 22.2728 17.4228 22.0991 18.2723 21.7779C19.0041 21.5111 19.6655 21.0813 20.2067 20.5211C20.7665 19.9775 21.1994 19.317 21.4744 18.5868C21.786 17.735 21.9559 16.8379 21.9771 15.9311C21.9771 14.7727 22.0427 14.4011 22.0427 11.4286C22.0427 8.456 22.0427 8.08443 21.9771 6.926ZM20.01 15.8C20.002 16.4937 19.8764 17.181 19.6384 17.8327C19.4639 18.3083 19.1836 18.7381 18.8188 19.0895C18.4643 19.4507 18.0354 19.7304 17.562 19.9091C16.9103 20.1471 16.223 20.2728 15.5293 20.2807C14.4364 20.3354 14.032 20.3463 11.1578 20.3463C8.28362 20.3463 7.87926 20.3463 6.7864 20.2807C6.06609 20.2942 5.34885 20.1833 4.66626 19.9529C4.21358 19.765 3.80439 19.486 3.46412 19.1332C3.10139 18.7821 2.82463 18.352 2.6554 17.8764C2.38859 17.2154 2.2406 16.5125 2.21826 15.8C2.21826 14.7071 2.15269 14.3028 2.15269 11.4286C2.15269 8.55436 2.15269 8.15 2.21826 7.05714C2.22316 6.34794 2.35263 5.64511 2.60076 4.98071C2.79316 4.51943 3.08846 4.10824 3.46412 3.77857C3.79614 3.40281 4.20648 3.10438 4.66626 2.90429C5.33241 2.6639 6.03452 2.53827 6.74269 2.53271C7.83555 2.53271 8.2399 2.46714 11.1141 2.46714C13.9883 2.46714 14.3927 2.46714 15.4855 2.53271C16.1793 2.54067 16.8666 2.66631 17.5183 2.90429C18.0149 3.0886 18.4606 3.38825 18.8188 3.77857C19.1769 4.11427 19.4567 4.5247 19.6384 4.98071C19.8813 5.64619 20.007 6.34873 20.01 7.05714C20.0646 8.15 20.0755 8.55436 20.0755 11.4286C20.0755 14.3028 20.0646 14.7071 20.01 15.8ZM11.1141 5.82221C10.0058 5.82437 8.9229 6.15502 8.00238 6.77236C7.08185 7.38971 6.36497 8.26606 5.94232 9.29067C5.51966 10.3153 5.4102 11.4422 5.62775 12.529C5.84531 13.6158 6.38012 14.6137 7.16462 15.3967C7.94911 16.1797 8.94809 16.7126 10.0353 16.928C11.1225 17.1434 12.2492 17.0318 13.273 16.6071C14.2968 16.1825 15.1718 15.4639 15.7873 14.5422C16.4029 13.6204 16.7314 12.5369 16.7314 11.4286C16.7328 10.691 16.5885 9.96043 16.3065 9.27887C16.0246 8.59731 15.6107 7.97821 15.0887 7.45718C14.5667 6.93615 13.9467 6.52348 13.2646 6.24289C12.5825 5.9623 11.8517 5.81933 11.1141 5.82221ZM11.1141 15.0678C10.3943 15.0678 9.69074 14.8543 9.09228 14.4545C8.49381 14.0546 8.02737 13.4862 7.75192 12.8212C7.47648 12.1563 7.40441 11.4245 7.54483 10.7186C7.68525 10.0127 8.03185 9.36421 8.5408 8.85526C9.04976 8.3463 9.6982 7.9997 10.4041 7.85928C11.1101 7.71886 11.8418 7.79093 12.5068 8.06638C13.1718 8.34182 13.7401 8.80827 14.14 9.40673C14.5399 10.0052 14.7533 10.7088 14.7533 11.4286C14.7533 11.9065 14.6592 12.3797 14.4763 12.8212C14.2934 13.2628 14.0254 13.664 13.6874 14.0019C13.3495 14.3398 12.9483 14.6079 12.5068 14.7908C12.0653 14.9737 11.592 15.0678 11.1141 15.0678Z" fill="#E2EAF1"/>
</svg>
