<svg width="25" height="25" viewBox="0 0 25 25" fill="none" xmlns="http://www.w3.org/2000/svg">
<path d="M15.5459 12.2242C15.108 11.943 14.6327 11.7248 14.1339 11.5761C13.8279 11.4832 13.4892 11.3925 13.1394 11.3062C12.8334 11.2209 12.4706 11.1335 12.0225 11.0352C11.4878 10.9231 10.963 10.7681 10.4532 10.5718C10.1904 10.4697 9.95854 10.3014 9.78 10.0833C9.64935 9.90478 9.58728 9.68522 9.60515 9.46473C9.60475 9.22831 9.68363 8.99859 9.82918 8.81229C10.0329 8.57368 10.2972 8.39436 10.5942 8.29318C11.0937 8.12153 11.6202 8.04156 12.1482 8.05713C12.5568 8.05035 12.9641 8.10412 13.3569 8.21668C13.6174 8.28998 13.8628 8.40915 14.0815 8.56858C14.2229 8.66951 14.3435 8.79679 14.4367 8.94343C14.5041 9.07079 14.5961 9.18354 14.7074 9.27519C14.8186 9.36684 14.9469 9.43559 15.0848 9.47748C15.2227 9.51936 15.3675 9.53355 15.5109 9.51924C15.6543 9.50492 15.7935 9.46238 15.9204 9.39407C16.0473 9.32575 16.1594 9.23301 16.2503 9.12117C16.3413 9.00934 16.4092 8.88064 16.4501 8.74246C16.4911 8.60428 16.5043 8.45936 16.4891 8.31605C16.4738 8.17273 16.4303 8.03385 16.3612 7.9074C16.1307 7.49979 15.8195 7.14352 15.4465 6.86045C15.0155 6.52939 14.5267 6.28146 14.005 6.12933C13.4027 5.9514 12.7773 5.86447 12.1493 5.87141C11.3511 5.85423 10.5565 5.98389 9.80514 6.25391C9.12563 6.50128 8.52872 6.93353 8.0817 7.50196C7.65355 8.06716 7.42176 8.75676 7.42162 9.46582C7.40389 10.1717 7.62749 10.8626 8.05548 11.4242C8.46867 11.9446 9.01029 12.3484 9.627 12.5958C10.093 12.7751 10.5701 12.924 11.0554 13.0416C11.0641 13.0449 11.0707 13.0526 11.0794 13.0548C11.2892 13.1181 11.6237 13.2023 12.1067 13.3061C12.2958 13.3476 12.4728 13.3925 12.6498 13.4373C12.6673 13.4416 12.6925 13.4471 12.7089 13.4526L12.7285 13.4547C12.9996 13.5247 13.2608 13.5957 13.5001 13.6689C13.7941 13.755 14.0748 13.8815 14.3339 14.0449C14.4955 14.1464 14.6314 14.2841 14.7306 14.4471C14.8267 14.6459 14.8711 14.8658 14.8596 15.0864C14.8747 15.3719 14.7923 15.654 14.6257 15.8864C14.4008 16.179 14.0966 16.4009 13.7493 16.5257C13.2315 16.7255 12.6789 16.8192 12.1242 16.8011C11.4827 16.8257 10.8446 16.6968 10.263 16.4251C9.99442 16.2821 9.76367 16.0772 9.58985 15.8273C9.46784 15.6675 9.39154 15.4775 9.36909 15.2776C9.36909 14.9878 9.25395 14.7098 9.049 14.5049C8.84405 14.2999 8.56608 14.1848 8.27623 14.1848C7.98639 14.1848 7.70842 14.2999 7.50347 14.5049C7.29852 14.7098 7.18338 14.9878 7.18338 15.2776C7.20139 15.9225 7.41312 16.547 7.791 17.0699C8.16866 17.6138 8.67171 18.0587 9.25762 18.3671C10.1491 18.8021 11.1326 19.0147 12.1242 18.9868C12.9668 19.0072 13.8047 18.8566 14.5875 18.5442C15.3151 18.265 15.9469 17.782 16.4071 17.153C16.8446 16.5402 17.0688 15.8007 17.0453 15.0481C17.0555 14.4647 16.9143 13.8887 16.6355 13.3761C16.3663 12.9133 15.9933 12.5194 15.5459 12.2253V12.2242ZM23.4374 14.2766C23.7321 12.4806 23.5949 10.6402 23.0373 8.90769C22.4796 7.17519 21.5176 5.60034 20.2306 4.31339C18.9437 3.02643 17.3688 2.06435 15.6363 1.50671C13.9038 0.949079 12.0634 0.811911 10.2674 1.10656C8.94136 0.470753 7.45064 0.262249 6.00102 0.509825C4.55141 0.7574 3.21439 1.44885 2.17451 2.48872C1.13464 3.52859 0.443191 4.86562 0.195616 6.31523C-0.05196 7.76485 0.156544 9.25557 0.792347 10.5816C0.497946 12.3775 0.635256 14.2176 1.19292 15.9498C1.75059 17.6821 2.71259 19.2567 3.99939 20.5435C5.28619 21.8303 6.86081 22.7923 8.59307 23.35C10.3253 23.9076 12.1654 24.045 13.9613 23.7506C15.2873 24.3864 16.7781 24.5949 18.2277 24.3473C19.6773 24.0997 21.0143 23.4083 22.0542 22.3684C23.0941 21.3285 23.7855 19.9915 24.0331 18.5419C24.2807 17.0923 24.0722 15.6015 23.4363 14.2755L23.4374 14.2766ZM17.0322 22.2643C16.203 22.2639 15.3873 22.0542 14.6607 21.6545C14.4353 21.5303 14.1734 21.4893 13.9208 21.5386C12.574 21.8072 11.1843 21.7736 9.85197 21.4401C8.51968 21.1066 7.27801 20.4815 6.21655 19.61C5.15508 18.7385 4.30027 17.6423 3.71379 16.4004C3.1273 15.1585 2.82376 13.802 2.82506 12.4286C2.82619 11.8216 2.88621 11.2163 3.00429 10.621C3.05373 10.3684 3.01272 10.1065 2.88845 9.8811C2.3753 8.9478 2.17902 7.87313 2.3291 6.81869C2.47919 5.76425 2.96754 4.78703 3.72072 4.03397C4.4739 3.28092 5.4512 2.79273 6.50567 2.64281C7.56013 2.4929 8.63477 2.68936 9.56799 3.20266C9.79358 3.32746 10.056 3.36849 10.3089 3.3185C11.6557 3.05005 13.0453 3.08384 14.3775 3.41743C15.7096 3.75103 16.9512 4.37611 18.0125 5.24759C19.0738 6.11908 19.9285 7.21524 20.515 8.45703C21.1014 9.69881 21.4049 11.0553 21.4036 12.4286C21.4025 13.0355 21.3425 13.6408 21.2244 14.2361C21.175 14.4887 21.216 14.7506 21.3402 14.976C21.7525 15.7247 21.9625 16.568 21.9494 17.4226C21.9364 18.2772 21.7008 19.1136 21.2658 19.8494C20.8309 20.5852 20.2117 21.1949 19.4693 21.6183C18.7269 22.0418 17.8869 22.2644 17.0322 22.2643Z" fill="#E2EAF1"/>
</svg>
