<svg width="25" height="21" viewBox="0 0 25 21" fill="none" xmlns="http://www.w3.org/2000/svg">
<path d="M24.126 1.63091C24.1259 1.43802 24.0748 1.24857 23.9779 1.08181C23.8809 0.915053 23.7416 0.776927 23.574 0.681464C23.4063 0.586001 23.2164 0.536602 23.0236 0.538287C22.8307 0.539972 22.6417 0.592679 22.4757 0.691055C21.8358 1.07226 21.1467 1.3642 20.4277 1.55878C19.4015 0.67824 18.0926 0.196439 16.7404 0.201455C15.2571 0.203232 13.8326 0.781359 12.7675 1.81377C11.7025 2.84618 11.0803 4.25207 11.0324 5.73459C8.10773 5.26829 5.45698 3.7418 3.58571 1.44622C3.47295 1.30958 3.32903 1.20203 3.16604 1.13261C3.00305 1.06319 2.82577 1.03394 2.64913 1.04733C2.47252 1.06194 2.30213 1.11933 2.15266 1.21453C2.00319 1.30973 1.87915 1.43989 1.79123 1.59375C1.34045 2.3805 1.08158 3.26247 1.03562 4.16804C0.989672 5.07361 1.15794 5.97726 1.52676 6.80559L1.52458 6.80668C1.35845 6.90876 1.22134 7.05183 1.12642 7.22216C1.0315 7.39248 0.981947 7.58434 0.98252 7.77933C0.980766 7.93975 0.990628 8.10009 1.01203 8.25909C1.12363 9.63396 1.73291 10.9209 2.72563 11.8786C2.65826 12.0071 2.61719 12.1476 2.6048 12.2921C2.59242 12.4366 2.60897 12.5821 2.6535 12.7201C3.08625 14.0689 4.00674 15.2076 5.23483 15.9135C3.98697 16.3959 2.63962 16.564 1.31147 16.4031C1.06577 16.3725 0.816966 16.4263 0.605821 16.5556C0.394676 16.6849 0.233701 16.8821 0.14926 17.1149C0.0648181 17.3476 0.061916 17.6021 0.141028 17.8368C0.220141 18.0714 0.376578 18.2722 0.58472 18.4063C2.86902 19.8773 5.52867 20.6593 8.24565 20.6586C11.3267 20.6933 14.3328 19.7088 16.7964 17.8583C19.2601 16.0078 21.0431 13.3949 21.8681 10.4262C22.2538 9.13312 22.4508 7.79108 22.4528 6.44167L22.4517 6.2231C23.0223 5.6076 23.4644 4.88438 23.7519 4.09583C24.0394 3.30727 24.1665 2.46926 24.126 1.63091ZM20.513 5.14117C20.3323 5.35451 20.2407 5.62926 20.2572 5.90835C20.2682 6.08868 20.2671 6.27009 20.2671 6.44167C20.2648 7.58172 20.0976 8.71544 19.7709 9.80767C19.0974 12.3339 17.5955 14.5611 15.5058 16.1324C13.4161 17.7037 10.8596 18.5283 8.24565 18.474C7.30703 18.4742 6.37165 18.3638 5.45886 18.1451C6.62309 17.7696 7.71163 17.1909 8.67405 16.4358C8.85152 16.2963 8.98142 16.1053 9.04591 15.8889C9.1104 15.6726 9.10631 15.4416 9.0342 15.2277C8.9621 15.0137 8.82551 14.8274 8.64322 14.6942C8.46093 14.5611 8.24187 14.4876 8.01615 14.484C7.10768 14.4698 6.24021 14.1034 5.59656 13.4622C5.75976 13.4316 5.92187 13.3933 6.08288 13.3474C6.31897 13.2803 6.52559 13.1357 6.66946 12.9368C6.81333 12.738 6.88608 12.4965 6.87598 12.2513C6.86589 12.006 6.77353 11.7713 6.6138 11.585C6.45407 11.3986 6.23626 11.2715 5.99546 11.224C5.46814 11.1199 4.97196 10.8955 4.54549 10.5683C4.11901 10.2412 3.77374 9.82006 3.53653 9.33774C3.73407 9.36474 3.93287 9.38152 4.13213 9.38801C4.36894 9.39191 4.60083 9.32028 4.79418 9.18352C4.98754 9.04675 5.13231 8.85196 5.20751 8.62738C5.27969 8.4009 5.27606 8.15707 5.19718 7.93283C5.11829 7.7086 4.96845 7.5162 4.77036 7.3848C4.28943 7.06467 3.89543 6.63023 3.62364 6.12042C3.35185 5.6106 3.21078 5.04133 3.21304 4.4636C3.21304 4.39147 3.21523 4.31825 3.2196 4.24721C5.6692 6.53197 8.84662 7.8788 12.192 8.05035C12.3609 8.05677 12.529 8.02468 12.6837 7.95652C12.8384 7.88836 12.9756 7.78591 13.0848 7.65693C13.193 7.52715 13.2697 7.37404 13.3088 7.20964C13.3478 7.04523 13.3482 6.87401 13.3099 6.70942C13.2474 6.44846 13.2155 6.18108 13.2149 5.91273C13.216 4.97805 13.5878 4.08198 14.2488 3.42106C14.9097 2.76014 15.8057 2.38833 16.7404 2.38717C17.2214 2.38575 17.6975 2.48407 18.1386 2.67594C18.5797 2.8678 18.9763 3.14904 19.3032 3.50188C19.4292 3.63753 19.5879 3.73867 19.7641 3.79567C19.9402 3.85268 20.1281 3.86365 20.3097 3.82755C20.7586 3.74029 21.2012 3.62272 21.6342 3.47565C21.339 4.07981 20.9616 4.64028 20.513 5.14117Z" fill="#E2EAF1"/>
</svg>
