<?xml version="1.0" encoding="UTF-8"?>
<svg xmlns="http://www.w3.org/2000/svg" width="110" height="128" viewBox="0 0 110 128" fill="none">
  <path d="M0 62.8811H110V48.7134H0V62.8811ZM18.8098 114.186C18.8098 115.458 19.8768 116.478 21.1896 116.478H88.7962C90.109 116.478 91.176 115.458 91.176 114.186C91.176 112.921 90.109 111.894 88.7962 111.894H21.1896C19.8768 111.894 18.8098 112.921 18.8098 114.186ZM18.8098 101.984C18.8098 103.249 19.8768 104.269 21.1896 104.269H88.7962C90.109 104.269 91.176 103.249 91.176 101.984V78.2665C91.176 76.9946 90.109 75.9743 88.7962 75.9743H21.1896C19.8768 75.9743 18.8098 76.9946 18.8098 78.2665V101.984ZM8.914 67.4654H101.071V128H8.914V67.4654ZM86.4022 99.6848H23.5836V80.5586H86.4022V99.6848Z" fill="#FE9300"></path>
  <path d="M51.3934 44.129C48.4631 44.129 53.1897 44.129 54.5492 44.129C54.5492 44.129 55 44.129 55.9087 44.129H57.2541C57.2541 44.129 59.4862 44.1018 59.5146 44.129H63.4531C63.5248 42.6395 63.9866 41.1839 64.7801 39.8848L40.0854 16.2423C37.1714 17.9155 33.537 17.9835 30.5654 16.4123L27.2337 19.6023C28.8491 22.459 28.7767 25.9414 27.0604 28.7301L43.1436 44.129H45.5328H51.3934Z" fill="black"></path>
  <path d="M79.8248 44.129H68.2851C68.386 43.0816 68.8328 42.0681 69.6406 41.2996C70.0881 40.8711 70.3474 40.2861 70.3474 39.6807C70.3474 39.0754 70.0881 38.4904 69.6406 38.0619L55.8149 24.8192L41.9893 11.5764C41.5424 11.1479 40.9222 10.9098 40.2871 10.9098C39.6528 10.9098 39.0468 11.1478 38.6 11.5899C36.7679 13.3584 33.8254 13.4264 31.9067 11.7396C30.9696 10.9098 29.5126 10.9438 28.6033 11.8076L22.43 17.7183C21.5214 18.5753 21.4923 19.9696 22.3433 20.8742C24.0888 22.7242 24.0312 25.5537 22.1849 27.3086C21.2614 28.2064 21.2614 29.6551 22.1849 30.553L36.3786 44.129H31.6907L9.67919 23.0372L33.7246 -3.09944e-06L79.8248 44.129Z" fill="black"></path>
</svg>
