<?xml version="1.0" encoding="UTF-8"?>
<svg xmlns="http://www.w3.org/2000/svg" width="181" height="181" viewBox="0 0 181 181" fill="none">
  <path d="M157.603 113.274C152.846 127.522 143.7 139.899 131.476 148.631C119.252 157.362 104.577 161.999 89.5556 161.878C74.5341 161.757 59.9366 156.883 47.8552 147.955C35.7738 139.028 26.8288 126.505 22.3023 112.181L49.4334 103.607C52.1493 112.201 57.5163 119.715 64.7651 125.072C72.014 130.428 80.7725 133.353 89.7854 133.425C98.7983 133.498 107.603 130.716 114.937 125.477C122.272 120.238 127.759 112.812 130.614 104.263L157.603 113.274Z" fill="black"></path>
  <path d="M90.4135 19.6128C101.677 19.6577 112.77 22.3768 122.777 27.5464C132.785 32.7161 141.422 40.1883 147.977 49.3483C154.532 58.5083 158.819 69.094 160.483 80.2343C162.148 91.3746 161.143 102.751 157.551 113.427L130.583 104.355C132.738 97.9491 133.341 91.1233 132.342 84.4391C131.343 77.7549 128.771 71.4035 124.838 65.9075C120.905 60.4115 115.723 55.9281 109.718 52.8264C103.714 49.7246 97.0584 48.0931 90.3001 48.0662L90.4135 19.6128Z" fill="#FE9300"></path>
  <path d="M108.838 91.8491H108.839L108.832 91.8348C108.551 91.2865 108.247 90.7525 107.919 90.2341C107.591 89.7152 107.263 89.1968 106.95 88.6697L90.5 61L74.0505 88.6697C73.7368 89.1968 73.4091 89.7152 73.0807 90.2341C72.753 90.7525 72.4484 91.2865 72.1686 91.8348L72.1603 91.8491H72.1614C70.7616 94.5943 69.9806 97.6974 70.0004 100.981C70.0683 112.125 79.3596 121.106 90.7003 120.999C101.93 120.894 111 111.917 111 100.858C111 97.6194 110.221 94.5599 108.838 91.8491Z" fill="#191919"></path>
  <path d="M22.3935 112.467C18.9657 101.778 18.1164 90.4289 19.9152 79.3482C21.7139 68.2676 26.1096 57.7699 32.7428 48.7136C39.376 39.6573 48.0584 32.2994 58.0801 27.2416C68.1018 22.1838 79.1783 19.5696 90.4039 19.6128L90.2944 48.0662C83.559 48.0403 76.9131 49.6088 70.9001 52.6435C64.887 55.6782 59.6776 60.0929 55.6977 65.5267C51.7178 70.9605 49.0804 77.2591 48.0011 83.9075C46.9219 90.5559 47.4315 97.3653 49.4882 103.779L22.3935 112.467Z" fill="black"></path>
</svg>
