<?xml version="1.0" encoding="UTF-8"?>
<svg xmlns="http://www.w3.org/2000/svg" width="180" height="180" viewBox="0 0 180 180" fill="none">
  <path d="M157.349 112.651C152.565 126.874 143.402 139.217 131.172 147.912C118.942 156.607 104.274 161.206 89.2691 161.052C74.2644 160.898 59.6937 155.997 47.6454 147.053C35.5971 138.108 26.6896 125.579 22.1997 111.261L49.3198 102.757C52.0138 111.348 57.3582 118.865 64.5872 124.232C71.8162 129.598 80.5587 132.539 89.5615 132.631C98.5643 132.724 107.365 129.964 114.703 124.747C122.041 119.53 127.539 112.124 130.409 103.591L157.349 112.651Z" fill="#FE9300"></path>
  <path d="M90.4401 18.9456C101.691 19.0153 112.765 21.7559 122.751 26.9419C132.736 32.1279 141.347 39.6111 147.874 48.7754C154.402 57.9397 158.661 68.5233 160.299 79.6549C161.937 90.7866 160.908 102.148 157.297 112.805L130.378 103.683C132.545 97.2889 133.162 90.472 132.179 83.793C131.196 77.114 128.641 70.7638 124.725 65.2652C120.808 59.7666 115.641 55.2768 109.65 52.1652C103.659 49.0536 97.0149 47.4092 90.2641 47.3674L90.4401 18.9456Z" fill="#FE9300"></path>
  <path d="M22.2902 111.548C18.8897 100.862 18.0665 89.524 19.8877 78.4595C21.7089 67.395 26.1229 56.9187 32.7688 47.887C39.4146 38.8553 48.1037 31.5247 58.1255 26.4946C68.1474 21.4644 79.2174 18.8776 90.4305 18.9455L90.2583 47.3673C83.5304 47.3266 76.8884 48.8787 70.8753 51.8967C64.8622 54.9148 59.6488 59.3132 55.6613 64.7322C51.6737 70.1512 49.0253 76.437 47.9326 83.0757C46.8399 89.7144 47.3338 96.5174 49.3741 102.929L22.2902 111.548Z" fill="black"></path>
  <path d="M96.6078 69.776H82.7735V83.0765H69.473V96.9107H82.7735V110.211H96.6078V96.9107H109.908V83.0765H96.6078V69.776Z" fill="black"></path>
</svg>
