<?xml version="1.0" encoding="UTF-8"?>
<svg xmlns="http://www.w3.org/2000/svg" width="181" height="181" viewBox="0 0 181 181" fill="none">
  <path d="M157.603 113.274C152.846 127.522 143.699 139.899 131.476 148.631C119.252 157.362 104.577 161.999 89.5556 161.878C74.5341 161.757 59.9365 156.883 47.8552 147.955C35.7738 139.028 26.8288 126.505 22.3023 112.181L49.4334 103.607C52.1493 112.201 57.5163 119.715 64.7651 125.072C72.014 130.428 80.7725 133.353 89.7854 133.425C98.7983 133.498 107.603 130.716 114.937 125.477C122.272 120.238 127.759 112.812 130.614 104.263L157.603 113.274Z" fill="black"></path>
  <path d="M90.4135 19.6128C101.677 19.6577 112.77 22.3768 122.777 27.5464C132.785 32.7161 141.422 40.1883 147.977 49.3483C154.532 58.5083 158.819 69.094 160.483 80.2343C162.148 91.3746 161.143 102.751 157.551 113.427L130.583 104.355C132.738 97.9491 133.341 91.1233 132.342 84.4391C131.343 77.7549 128.771 71.4035 124.838 65.9075C120.905 60.4115 115.723 55.9281 109.718 52.8264C103.714 49.7246 97.0584 48.0931 90.3001 48.0662L90.4135 19.6128Z" fill="#FE9300"></path>
  <path d="M22.3935 112.467C18.9657 101.778 18.1164 90.4289 19.9152 79.3482C21.7139 68.2676 26.1096 57.7699 32.7428 48.7136C39.376 39.6573 48.0583 32.2994 58.0801 27.2416C68.1018 22.1838 79.1782 19.5696 90.4039 19.6128L90.2944 48.0662C83.559 48.0403 76.9131 49.6088 70.9001 52.6435C64.887 55.6782 59.6776 60.0929 55.6977 65.5267C51.7178 70.9605 49.0804 77.2591 48.0011 83.9075C46.9219 90.5559 47.4315 97.3653 49.4882 103.779L22.3935 112.467Z" fill="black"></path>
  <path d="M98.0342 90.2595C98.0342 88.0778 97.2623 86.215 95.7186 84.6713C94.1749 83.1276 92.3121 82.3558 90.1304 82.3558C87.9486 82.3558 86.0859 83.1276 84.5422 84.6713C82.9984 86.215 82.2266 88.0778 82.2266 90.2595C82.2266 92.4413 82.9984 94.304 84.5422 95.8478C86.0859 97.3915 87.9486 98.1633 90.1304 98.1633C92.3121 98.1633 94.1749 97.3915 95.7186 95.8478C97.2623 94.304 98.0342 92.4413 98.0342 90.2595ZM113.842 86.8943V93.7483C113.842 93.9953 113.759 94.232 113.595 94.4584C113.43 94.6848 113.224 94.8186 112.977 94.8598L107.266 95.7243C106.874 96.8357 106.473 97.7722 106.061 98.5338C106.782 99.5629 107.883 100.983 109.365 102.794C109.571 103.041 109.674 103.299 109.674 103.566C109.674 103.834 109.581 104.071 109.396 104.276C108.84 105.038 107.821 106.149 106.339 107.611C104.857 109.072 103.89 109.803 103.437 109.803C103.19 109.803 102.923 109.71 102.634 109.525L98.3738 106.191C97.4681 106.664 96.5316 107.055 95.5642 107.364C95.2349 110.163 94.9364 112.077 94.6689 113.106C94.5248 113.683 94.1543 113.971 93.5574 113.971H86.7033C86.4152 113.971 86.163 113.883 85.9469 113.708C85.7308 113.533 85.6125 113.312 85.5919 113.045L84.7274 107.364C83.7188 107.034 82.7926 106.654 81.9487 106.221L77.5955 109.525C77.3896 109.71 77.1324 109.803 76.8236 109.803C76.5355 109.803 76.2782 109.69 76.0518 109.463C73.4583 107.117 71.7603 105.388 70.9575 104.276C70.8134 104.071 70.7414 103.834 70.7414 103.566C70.7414 103.319 70.8237 103.083 70.9884 102.856C71.2971 102.424 71.822 101.74 72.563 100.803C73.304 99.8665 73.8597 99.141 74.2302 98.6264C73.6745 97.5973 73.2525 96.5784 72.9643 95.5699L67.3144 94.7363C67.0468 94.6951 66.8307 94.5665 66.666 94.3504C66.5014 94.1342 66.419 93.8924 66.419 93.6248V86.7708C66.419 86.5238 66.5014 86.2871 66.666 86.0607C66.8307 85.8342 67.0262 85.7005 67.2526 85.6593L72.9952 84.7948C73.2834 83.848 73.6847 82.9012 74.1993 81.9544C73.376 80.7812 72.2748 79.361 70.8958 77.6938C70.69 77.4468 70.587 77.1998 70.587 76.9528C70.587 76.7469 70.6797 76.5102 70.8649 76.2427C71.4001 75.5017 72.4138 74.3954 73.906 72.9237C75.3983 71.452 76.3708 70.7162 76.8236 70.7162C77.0912 70.7162 77.3588 70.8191 77.6263 71.0249L81.887 74.3285C82.7926 73.8551 83.7291 73.464 84.6965 73.1553C85.0258 70.356 85.3243 68.4418 85.5919 67.4127C85.736 66.8363 86.1064 66.5482 86.7033 66.5482H93.5574C93.8456 66.5482 94.0977 66.6357 94.3138 66.8106C94.5299 66.9856 94.6483 67.2068 94.6689 67.4744L95.5333 73.1553C96.5419 73.4846 97.4681 73.8654 98.312 74.2976L102.696 70.9941C102.881 70.8088 103.128 70.7162 103.437 70.7162C103.705 70.7162 103.962 70.8191 104.209 71.0249C106.864 73.4743 108.562 75.2238 109.303 76.2735C109.447 76.4382 109.519 76.6646 109.519 76.9528C109.519 77.1998 109.437 77.4365 109.272 77.6629C108.964 78.0951 108.439 78.7795 107.698 79.716C106.957 80.6525 106.401 81.3781 106.031 81.8926C106.566 82.9218 106.988 83.9303 107.296 84.9183L112.946 85.7828C113.214 85.8239 113.43 85.9526 113.595 86.1687C113.759 86.3848 113.842 86.6267 113.842 86.8943Z" fill="black"></path>
</svg>
