<?xml version="1.0" encoding="UTF-8"?>
<svg xmlns="http://www.w3.org/2000/svg" width="104" height="128" viewBox="0 0 104 128" fill="none">
  <path d="M22.8322 81.8144H81.2941V100.438H22.8322V81.8144ZM0.869904 50.8177H103.27V64.619H97.2784C97.2512 64.619 97.224 64.6054 97.1968 64.6054C97.156 64.6054 97.129 64.619 97.1018 64.619H7.02461C6.99743 64.619 6.97018 64.6054 6.94301 64.6054C6.90225 64.6054 6.87505 64.619 6.84788 64.619H0.869904V50.8177ZM85.7503 102.669C85.7503 103.901 84.7518 104.9 83.5223 104.9H20.604C19.3744 104.9 18.3759 103.901 18.3759 102.669V79.5834C18.3759 78.3522 19.3744 77.3523 20.604 77.3523H83.5223C84.7518 77.3523 85.7503 78.3522 85.7503 79.5834V102.669ZM83.5223 116.79H20.604C19.3744 116.79 18.3759 115.79 18.3759 114.559C18.3759 113.321 19.3744 112.321 20.604 112.321H83.5223C84.7518 112.321 85.7503 113.321 85.7503 114.559C85.7503 115.79 84.7518 116.79 83.5223 116.79ZM9.15755 69.0675V128H94.9687V69.0675H9.15755Z" fill="#FE9300"></path>
  <path d="M38.6944 46.3488L21.3446 28.9901C18.145 25.7864 16.3653 21.5147 16.3653 16.9778C16.3653 12.434 18.1451 8.16241 21.3583 4.95867C24.5443 1.76853 28.8104 -2.31901e-06 33.3482 -2.31901e-06C37.8928 -2.31901e-06 42.1453 1.76853 45.3449 4.95867L50.4872 10.1078C51.3432 10.9852 52.7562 10.9852 53.6325 10.1078L58.7749 4.97226C65.3914 -1.64608 76.1519 -1.64608 82.7684 4.97226C86.0019 8.1624 87.7614 12.4204 87.7614 16.9778C87.7614 21.5283 86.0018 25.7864 82.7547 28.9901L65.4186 46.3488H38.6944Z" fill="black"></path>
</svg>
