<?xml version="1.0" encoding="UTF-8"?>
<svg xmlns="http://www.w3.org/2000/svg" width="212" height="43" viewBox="0 0 212 43" fill="none">
  <path d="M56.8875 24.9461C54.8334 24.0333 53.6099 23.6808 52.4066 23.6808C51.1405 23.6808 50.3316 24.1372 50.3316 24.8423C50.3316 26.9801 57.5306 26.378 57.5306 31.3161C57.5306 34.0334 55.2487 35.6102 52.0951 35.6102C49.6265 35.6102 48.4022 34.9671 46.9912 34.2411V31.1913C49.0244 32.5395 50.2696 33.0168 51.8255 33.0168C53.1737 33.0168 53.8997 32.5395 53.8997 31.7097C53.8997 29.3859 46.7007 30.2367 46.7007 25.1538C46.7007 22.706 48.8168 21.0874 52.0951 21.0874C53.6719 21.0874 55.103 21.419 56.8875 22.1869V24.9461Z" fill="black"></path>
  <path d="M64.2892 33.0999C63.791 33.5562 63.1897 33.8259 62.6295 33.8259C62.0902 33.8259 61.654 33.3695 61.654 32.8093C61.654 31.8555 62.5047 31.4401 64.2892 30.797V33.0999ZM67.7953 33.5981C67.4839 33.5981 67.2979 33.4113 67.2979 32.934V28.5771C67.2979 26.4819 65.6583 25.6722 63.2517 25.6722C61.7377 25.6722 60.3476 26.0666 59.1024 26.8345V29.2822C60.057 28.3075 61.4262 27.6853 62.6295 27.6853C63.9366 27.6853 64.3512 28.3904 64.2892 29.2822C60.2848 30.5274 58.605 30.9838 58.605 33.2664C58.605 34.469 59.7455 35.6103 61.2805 35.6103C62.318 35.6103 63.2726 35.3198 64.4341 34.531C64.6418 35.2996 65.1191 35.6103 66.1147 35.6103C66.9244 35.6103 68.1061 35.2369 68.9359 34.7386V33.0588C68.2308 33.5562 68.003 33.5981 67.7953 33.5981Z" fill="black"></path>
  <path d="M68.5591 25.8589H71.7747L73.8078 31.1286L75.8619 25.8589H79.0566L74.6586 35.6102H72.978L68.5591 25.8589Z" fill="black"></path>
  <path d="M84.6948 27.4567C85.8571 27.4567 86.6451 28.2455 86.7691 29.5526H82.6198C82.7446 28.2246 83.5124 27.4567 84.6948 27.4567ZM82.5578 31.1287H89.4245C89.5701 27.6434 87.2681 25.6722 84.4872 25.6722C81.5412 25.6722 79.4453 27.7473 79.4453 30.6731C79.4453 33.6601 81.6242 35.6103 84.9854 35.6103C85.7324 35.6103 87.537 35.6103 89.2594 34.345V32.4567C87.8484 33.4733 86.9148 33.8259 85.7114 33.8259C83.8239 33.8259 82.6617 32.8302 82.5578 31.1287Z" fill="black"></path>
  <path d="M103.173 27.9131H99.6877V31.8555C99.6877 32.7892 100.227 33.3904 101.16 33.3904C101.782 33.3904 102.364 33.2455 103.173 32.8302V35.0083C102.114 35.4445 101.326 35.6104 100.392 35.6104C98.4007 35.6104 96.679 34.6976 96.679 32.0213V27.9131H95.3091V27.3327L99.3135 22.8511H99.6877V25.859H103.173V27.9131Z" fill="black"></path>
  <path d="M107.358 27.2699H107.399C108.271 26.1704 109.245 25.6722 110.429 25.6722C112.171 25.6722 113.935 26.7306 113.935 29.324V35.4235H110.926V29.9671C110.926 28.5352 110.304 27.8719 109.37 27.8719C108.664 27.8719 108.064 28.3074 107.358 29.324V35.4235H104.349V21.2742H107.358V27.2699Z" fill="black"></path>
  <path d="M120.756 27.4567C121.918 27.4567 122.706 28.2455 122.83 29.5526H118.682C118.806 28.2246 119.574 27.4567 120.756 27.4567ZM118.619 31.1287H125.486C125.631 27.6434 123.329 25.6722 120.548 25.6722C117.602 25.6722 115.507 27.7473 115.507 30.6731C115.507 33.6601 117.685 35.6103 121.047 35.6103C121.794 35.6103 123.599 35.6103 125.321 34.345V32.4567C123.91 33.4733 122.976 33.8259 121.773 33.8259C119.884 33.8259 118.723 32.8302 118.619 31.1287Z" fill="black"></path>
  <path d="M145.893 34.1992C143.922 35.2158 142.428 35.6102 140.333 35.6102C134.836 35.6102 132.097 32.0421 132.097 28.3903C132.097 24.6145 135.188 21.0874 140.603 21.0874C142.573 21.0874 144.338 21.5019 145.728 22.3318V25.4862C144.171 24.6145 142.595 24.0333 140.852 24.0333C137.844 24.0333 135.728 25.8178 135.728 28.3283C135.728 30.8589 137.822 32.6643 140.769 32.6643C142.615 32.6643 143.86 32.0831 145.893 31.1084V34.1992Z" fill="black"></path>
  <path d="M150.996 27.2699H151.038C151.91 26.1704 152.884 25.6722 154.068 25.6722C155.81 25.6722 157.574 26.7306 157.574 29.324V35.4235H154.565V29.9671C154.565 28.5352 153.943 27.8719 153.009 27.8719C152.303 27.8719 151.702 28.3074 150.996 29.324V35.4235H147.988V21.2742H150.996V27.2699Z" fill="black"></path>
  <path d="M162.693 35.4235H159.686V25.8589H162.693V35.4235Z" fill="black"></path>
  <path d="M162.838 22.7471C162.838 23.6599 162.092 24.4068 161.179 24.4068C160.266 24.4068 159.52 23.6599 159.52 22.7471C159.52 21.8343 160.266 21.0874 161.179 21.0874C162.092 21.0874 162.838 21.8343 162.838 22.7471Z" fill="black"></path>
  <path d="M167.901 35.4235H164.893V21.2742H167.901V35.4235Z" fill="black"></path>
  <path d="M176.656 32.8093C176.033 33.3695 175.514 33.5981 174.871 33.5981C173.461 33.5981 172.568 32.4359 172.568 30.6932C172.568 28.7848 173.461 27.6853 174.976 27.6853C175.514 27.6853 176.22 27.934 176.656 28.2455V32.8093ZM176.656 21.2743V26.2743C175.847 25.8799 175.037 25.6723 174.166 25.6723C171.428 25.6723 169.519 27.7055 169.519 30.6313C169.519 33.4943 171.428 35.6104 174 35.6104C175.017 35.6104 175.805 35.3407 176.656 34.6558V35.4236H179.664V21.2743H176.656Z" fill="black"></path>
  <path d="M184.805 28.598H184.847C185.739 26.6059 186.735 25.6722 187.897 25.6722C188.499 25.6722 189.017 25.9008 189.888 26.5439L189.058 29.1993C188.27 28.7019 187.751 28.4942 187.274 28.4942C186.174 28.4942 185.469 29.5317 184.805 31.2953V35.4236H181.796V25.859H184.805V28.598Z" fill="black"></path>
  <path d="M195.365 27.4567C196.526 27.4567 197.316 28.2455 197.439 29.5526H193.291C193.415 28.2246 194.183 27.4567 195.365 27.4567ZM193.228 31.1287H200.095C200.241 27.6434 197.937 25.6722 195.157 25.6722C192.211 25.6722 190.116 27.7473 190.116 30.6731C190.116 33.6601 192.294 35.6103 195.656 35.6103C196.402 35.6103 198.207 35.6103 199.93 34.345V32.4567C198.519 33.4733 197.585 33.8259 196.382 33.8259C194.493 33.8259 193.332 32.8302 193.228 31.1287Z" fill="black"></path>
  <path d="M204.635 27.2281C205.589 26.1294 206.522 25.6722 207.746 25.6722C209.24 25.6722 211.232 26.523 211.232 29.345V35.4236H208.223V29.5937C208.223 28.2455 207.581 27.6853 206.73 27.6853C205.983 27.6853 205.423 28.0797 204.635 29.2621V35.4236H201.626V25.859H204.635V27.2281Z" fill="black"></path>
  <path d="M34.4606 10.7589C29.9835 14.6819 25.8769 16.6926 22.2661 16.7174C19.4876 16.7368 16.616 15.7109 13.7328 13.6692C11.3486 11.9823 9.55257 10.0383 8.47942 8.87756L8.37016 8.75901H8.36939H8.37016C10.5738 6.70336 13.2919 5.26448 16.2549 4.59037C16.2549 4.5896 16.2557 4.58882 16.2557 4.58805L16.258 4.5896C16.2573 4.5896 16.2557 4.59037 16.2549 4.59037C15.8683 5.70537 15.7288 6.91876 15.8365 8.14766C16.0295 10.3544 17.0205 12.3589 18.557 13.6482C19.758 14.6563 21.2139 15.1421 22.6551 15.0158C24.0963 14.8895 25.4461 14.1581 26.4541 12.9571C27.7427 11.4214 28.3711 9.27505 28.1782 7.06831C28.1425 6.66229 28.0798 6.26015 27.9906 5.86576L27.9914 5.86653C30.03 6.80874 31.885 8.10814 33.4982 9.72058C33.8252 10.0483 34.1483 10.3962 34.4621 10.7581L34.4606 10.7589ZM13.5383 26.3076C12.9262 28.8428 12.0894 32.3072 12.263 37.6404L12.2614 37.6381C10.8992 36.8252 9.62773 35.8435 8.50111 34.7169C5.42965 31.6447 3.4879 27.6194 3.03384 23.3818C2.59683 19.31 3.54679 15.256 5.71014 11.9266L5.71091 11.9258L5.71014 11.9266C6.39122 12.7425 7.2172 13.6839 8.0827 14.6679C10.2011 17.0777 12.6023 19.8082 13.7305 21.7112C14.3829 22.8123 14.0652 24.1279 13.5383 26.3076ZM38.8276 11.8475C40.7344 9.8864 41.5821 8.97751 41.4481 8.44132C41.3473 8.03841 40.9607 7.66416 40.3586 7.38599C39.7124 7.08845 38.809 6.91024 38.3324 7.14657C38.1736 7.2256 37.9063 7.4875 37.2639 8.12286L36.6627 8.71252H36.6603C36.331 8.32587 35.9769 7.93845 35.6282 7.58977C33.0937 5.05527 29.8944 3.29561 26.3712 2.49753C25.0424 0.874241 23.2207 0.0381897 21.3596 0.200906C19.7959 0.337278 18.3718 1.16713 17.3389 2.5386C13.646 3.39092 10.2275 5.24124 7.43803 7.89816L7.43726 7.89661C6.8693 7.68276 5.58229 7.82068 4.75554 8.20267C4.28056 8.42118 4.00007 8.69547 3.91948 9.01703C3.85905 9.2611 3.93266 9.65472 4.84542 10.8526L4.84387 10.8549C2.01725 14.74 0.583026 19.4673 0.812379 24.1729C1.04793 28.997 3.02222 33.4981 6.37108 36.8469C7.55891 38.0348 8.88233 39.049 10.3228 39.8766H10.3235C12.4024 41.0721 14.7262 41.9655 17.2405 42.4792C22.5203 43.5578 27.7466 42.7745 32.1329 40.6026L32.1399 40.5979C32.6986 40.3376 32.9388 39.696 32.711 39.0715L32.642 38.8832C31.7161 36.3534 28.8957 28.6515 31.221 21.9623C32.1934 19.1628 34.6419 16.278 36.7409 14.0271H36.7417C38.5812 17.3682 39.3723 21.2455 38.9632 24.9717C38.575 28.5035 37.1818 31.7183 34.9146 34.3434C34.8464 34.4163 34.8054 34.5131 34.8054 34.6208C34.8054 34.6658 34.8123 34.7092 34.8255 34.7487L35.0045 35.2554C35.0618 35.4073 35.209 35.5158 35.3818 35.5158C35.4981 35.5158 35.6034 35.4669 35.6771 35.3887L35.6833 35.3902C41.6317 28.8266 42.9373 19.3193 38.8268 11.8483L38.8276 11.8475Z" fill="#FF112A"></path>
</svg>
