<?xml version="1.0" encoding="UTF-8"?>
<svg xmlns="http://www.w3.org/2000/svg" width="175" height="41" viewBox="0 0 175 41" fill="none">
  <path fill-rule="evenodd" clip-rule="evenodd" d="M0 14.2255H8.35543V26.2996C8.35543 28.8775 9.6183 30.503 12.3165 30.503C14.7723 30.503 16.1927 28.4078 16.1927 26.1197V14.2255H24.3431V28.0453C24.3431 30.9103 23.042 33.7389 20.6588 35.4016C18.2394 37.0745 15.133 37.4837 12.2559 37.4837C5.96018 37.4837 0.000931938 35.2683 0.000931938 28.0453V14.2255H0ZM26.702 36.8098V14.2255H34.9241V16.8621C37.0314 14.671 39.3903 13.4314 42.4967 13.4314C47.4205 13.4314 50.9956 16.2722 50.9956 21.3525V36.8108H42.7614V25.0246C42.7614 22.402 41.93 20.222 38.9206 20.222C35.9344 20.222 34.9232 22.7748 34.9232 25.3872V36.8117H26.702V36.8098ZM53.5363 36.8098V14.2255H61.8908V36.8098H53.5363ZM82.1153 29.0686V35.9552C80.2131 37.0382 77.9865 37.4371 75.8075 37.4371C69.2946 37.4371 63.9617 32.2598 63.9617 25.7106C63.9617 18.9209 69.2592 13.396 76.1206 13.396C78.2521 13.396 80.2867 13.8657 82.1162 14.9366V21.7747C80.8282 21.0161 79.419 20.3413 77.8905 20.3413C74.9538 20.3413 72.798 22.484 72.798 25.4226C72.798 28.2149 74.8205 30.3445 77.6613 30.3445C79.2503 30.3445 80.7192 29.7676 82.1153 29.0686ZM91.5891 27.528C91.5891 29.9111 92.6246 31.8255 95.2976 31.8255C96.9472 31.8255 98.0424 31.1265 98.7758 29.7191H106.552C105.783 32.0892 104.759 34.1974 102.63 35.6411C100.425 37.1594 97.7767 37.6766 95.141 37.6766C91.0728 37.6766 87.0997 35.8834 85.1014 32.2225C84.0175 30.2234 83.3437 27.8645 83.3437 25.5782C83.3437 22.2547 84.56 18.4987 87.04 16.2237C89.3383 14.1164 92.6265 13.2143 95.7077 13.2143C103.231 13.2143 107.083 17.9815 107.083 25.143C107.083 25.9389 106.988 26.7321 106.879 27.528H91.5891ZM108.588 36.8098V14.9841C108.588 11.6373 108.768 7.8692 111.286 5.35372C113.368 3.27162 116.607 2.70496 119.436 2.70496H121.578V8.63997H120.289C117.22 8.63997 116.907 10.5301 116.907 13.2031V14.5265H121.288V20.715H116.907V36.8108H108.588V36.8098ZM144.919 40.6022L144.186 39.892C145.462 38.3505 147.304 37.2563 149.11 36.424C148.098 36.0037 147.051 35.6542 145.945 35.6299L145.655 35.9664C144.522 37.3262 143.09 37.7353 141.344 37.7353C140.105 37.7353 138.672 37.6151 137.492 37.2181L136.229 36.8089L135.76 36.4958V36.4361C135.76 36.0633 137.433 35.7968 137.696 35.7502L139.648 35.3643C141.24 35.0337 142.86 34.8642 144.486 34.8582C146.474 34.8582 148.436 35.2571 150.302 35.9179C152.252 35.2804 154.286 34.8582 156.343 34.8582C158.558 34.8582 160.737 35.1481 162.869 35.7008C163.098 35.7604 164.675 36.0391 164.675 36.4594C164.675 37.206 159.847 37.7596 159.198 37.7596C157.656 37.7596 155.573 37.2423 154.937 35.6663C154.828 35.6663 154.707 35.6532 154.587 35.6532C153.575 35.6532 152.432 36.026 151.505 36.4119C153.191 37.1929 154.84 38.2284 156.14 39.5649L156.392 39.8305L155.682 40.5164L155.296 40.1902L154.586 39.5527C154.009 39.0234 151.084 36.9646 150.373 36.9152C149.735 36.8676 147.327 38.493 146.774 38.9143C146.111 39.4334 145.511 40.0122 144.919 40.6022ZM136.83 27.829L137.565 28.5644C138.432 29.4312 141.971 33.3064 141.971 34.4985C141.971 34.7641 141.501 34.751 141.321 34.751C139.684 34.751 138.216 33.546 137.433 32.1862C136.69 30.9067 136.299 29.4531 136.3 27.9735C136.3 27.8533 136.3 27.5876 136.47 27.5876C136.613 27.5886 136.747 27.7452 136.83 27.829ZM130.004 31.284C130.029 31.1405 130.197 31.0911 130.317 31.0911C131.486 31.0911 139.335 33.9821 139.335 34.8359C139.335 35.4622 137.227 35.3652 136.927 35.3652C135.204 35.3652 133.615 34.5954 132.268 33.559C131.992 33.3428 129.956 31.7062 130.004 31.284ZM133.46 27.1077C133.46 26.7218 133.701 23.4234 134.171 23.4234C134.64 23.4234 135.517 27.1421 135.626 27.5755C135.987 29.0807 136.229 30.5496 136.229 32.1023C136.229 32.2356 136.203 32.4881 136.023 32.4881C135.42 32.4881 134.326 30.5729 134.097 30.1274C133.615 29.201 133.46 28.1422 133.46 27.1077ZM127.284 24.9165C127.284 24.8326 127.307 24.7236 127.404 24.7236C128.548 24.7236 134.507 30.4666 134.507 31.6698C134.507 31.8134 134.423 31.8628 134.291 31.8628C132.556 31.8628 130.389 29.9969 129.331 28.7806C128.741 28.0947 127.284 25.8793 127.284 24.9165ZM133.086 26.2521L132.738 27.6119C132.702 27.7452 132.618 28.1049 132.436 28.1049C131.75 28.1049 131.413 25.0228 131.413 24.4337C131.413 23.3741 131.703 22.2911 132.089 21.3153C132.196 21.0515 132.845 19.2695 133.255 19.2695C133.652 19.2695 133.605 20.112 133.605 20.3404C133.605 22.2911 133.568 24.3629 133.086 26.2521ZM128.031 19.7998L129.077 21.4718C129.717 22.5073 131.256 25.3853 131.256 26.6361C131.256 26.733 131.22 26.8784 131.1 26.8784C130.823 26.8784 130.57 26.6985 130.366 26.5158L129.451 25.6985C127.814 24.2296 126.815 21.2444 126.815 19.0645C126.815 18.9321 126.863 18.6786 127.031 18.6786C127.452 18.6795 127.851 19.51 128.031 19.7998ZM133.268 15.6459C133.351 15.6459 133.364 15.7186 133.364 15.7903C133.364 16.8612 131.413 23.2781 130.559 23.2781C130.15 23.2781 130.186 22.1242 130.186 21.8819C130.186 20.0282 130.872 18.4391 131.966 16.9824C132.135 16.7661 132.918 15.6459 133.268 15.6459ZM127.585 15.5135C127.585 15.164 127.729 12.7324 128.104 12.7324C128.477 12.7324 129.018 14.9841 129.091 15.2731C129.561 17.0066 129.885 18.8846 129.885 20.6899C129.885 20.8819 129.935 21.5678 129.597 21.5678C129.198 21.5678 128.452 19.9191 128.319 19.5575C127.825 18.2946 127.585 16.8742 127.585 15.5135ZM131.123 17.6208L130.642 18.139C130.545 18.235 130.389 18.4158 130.233 18.4158C130.076 18.4158 130.076 18.2229 130.076 18.1147C130.076 16.5853 130.762 15.2134 131.713 14.0577C132.099 13.588 133.615 11.9029 134.241 11.9029C134.327 11.9029 134.375 11.9514 134.375 12.0232C134.375 13.2739 132.026 16.6328 131.123 17.6208ZM130.257 8.26624C130.75 8.29047 130.763 11.5646 130.763 11.8778C130.763 12.299 130.486 16.4763 129.908 16.4763C129.247 16.4763 129.067 13.1173 129.067 12.6718C129.067 11.6848 129.224 10.7333 129.524 9.79473C129.596 9.5785 129.908 8.24294 130.257 8.26624ZM134.652 8.35105L135.049 8.08636C135.085 8.07424 135.121 8.03789 135.158 8.03789C135.242 8.05001 135.278 8.15812 135.278 8.23082C135.278 9.07335 133.798 11.2524 133.316 11.902C133.039 12.2636 131.727 13.9002 131.21 13.9002C131.089 13.9002 131.004 13.7921 131.004 13.6831C131.004 11.7939 133.158 9.33804 134.652 8.35105ZM134.724 5.73864L134.362 6.74987C133.881 8.12271 133.002 9.59062 131.992 10.6382L131.665 10.9756C131.582 11.0725 131.472 11.1918 131.341 11.1918C131.135 11.1918 131.099 10.9271 131.099 10.7705C131.099 9.37439 131.905 7.98943 132.785 6.95397C133.062 6.61658 134.217 5.22044 134.687 5.22044C134.771 5.22044 134.784 5.35278 134.784 5.41336C134.784 5.52241 134.761 5.63053 134.724 5.73864ZM159.174 34.7874C158.993 34.7874 158.812 34.7147 158.812 34.5106C158.812 33.5711 163.796 27.5401 164.471 27.5401C164.615 27.5401 164.628 27.7442 164.628 27.8402C164.629 30.9 162.616 34.7874 159.174 34.7874ZM161.955 34.3055L163.04 33.7398C164.386 33.0427 169.094 31.1172 170.623 31.1172C170.707 31.1172 170.864 31.1535 170.864 31.2607C170.864 31.7901 168.251 33.7529 167.842 34.0185C166.53 34.8853 165.027 35.4146 163.448 35.4146C163.136 35.4146 161.391 35.4258 161.391 34.8489C161.39 34.5823 161.751 34.4015 161.955 34.3055ZM165.458 31.8991L164.975 32.3558C164.904 32.4285 164.808 32.5254 164.698 32.5357C164.506 32.5487 164.542 32.1386 164.542 32.0426V31.8628C164.542 29.7676 165.191 27.638 165.842 25.6631C165.904 25.4571 166.505 23.4607 166.854 23.4607C167.083 23.4607 167.144 24.0619 167.167 24.2175L167.371 25.4338C167.444 25.8923 167.468 26.3602 167.468 26.8299C167.468 28.721 166.831 30.5607 165.458 31.8991ZM173.187 24.9892L173.524 24.8326C173.56 24.8196 173.608 24.7832 173.667 24.7832C173.74 24.7832 173.8 24.8671 173.8 24.9398C173.796 25.0025 173.779 25.0637 173.751 25.1197L173.367 25.9865C172.584 27.7321 171.079 29.6232 169.429 30.6465C168.852 30.996 167.214 31.9094 166.528 31.9094C166.397 31.9094 166.312 31.8367 166.312 31.7053C166.312 30.9951 168.623 28.7312 169.142 28.214C170.153 27.1915 171.875 25.6258 173.187 24.9892ZM167.577 20.5454L167.625 19.7392C167.638 19.6432 167.674 19.2574 167.841 19.2704C167.974 19.2825 168.07 19.4745 168.131 19.5715L168.637 20.4858C169.287 21.6778 169.611 23.1103 169.611 24.4701C169.611 24.8923 169.13 28.2018 168.553 28.2018C167.841 28.2018 167.518 22.7738 167.518 22.3638C167.517 21.7617 167.541 21.1484 167.577 20.5454ZM170.863 22.4113L170.766 22.9537C170.743 23.0609 170.718 23.2538 170.575 23.2538C169.912 23.2538 168.31 18.2098 168.13 17.4642C168.117 17.4279 167.601 15.6822 168.01 15.6822C168.636 15.6822 169.972 18.0896 170.212 18.6441C170.634 19.5715 170.935 20.5585 170.935 21.5948C170.935 21.8707 170.912 22.1475 170.863 22.4113ZM173.632 13.7679L173.704 14.8387C173.728 15.0317 173.728 15.2125 173.728 15.3924C173.728 16.5723 173.487 17.92 173.114 19.0402C172.981 19.4009 172.007 21.593 171.478 21.593C171.272 21.593 171.249 21.2202 171.249 21.0869C171.249 19.0756 171.73 17.1976 172.308 15.2964C172.381 15.0671 172.982 12.8769 173.295 12.8769C173.561 12.8778 173.621 13.6113 173.632 13.7679ZM170.526 26.5531L169.961 26.8793C169.9 26.9205 169.83 26.9449 169.756 26.9502C169.673 26.9502 169.66 26.8187 169.66 26.7591C169.66 25.6398 173.451 18.6562 174.281 18.6562C174.367 18.6562 174.367 18.8007 174.367 18.8613C174.367 20.2099 173.981 21.6182 173.488 22.8708C172.971 24.1933 171.766 25.8429 170.526 26.5531ZM171.105 17.7289V18.138C171.105 18.2462 171.105 18.4027 170.972 18.4027C170.779 18.4027 170.622 18.1502 170.515 18.029L169.707 17.0662C169.033 16.2601 166.951 13.2264 166.951 12.1313C166.951 12.0586 166.987 11.9626 167.071 11.9626C167.241 11.9626 167.408 12.0828 167.528 12.1788L168.336 12.8051C169.707 13.8648 171.14 15.9227 171.105 17.7289ZM166.384 9.06124L166.241 8.57939C166.218 8.49551 166.181 8.39858 166.181 8.3147C166.181 8.25412 166.229 8.21777 166.288 8.21777C167.084 8.21777 168.769 10.1796 169.226 10.8302C169.732 11.5646 170.322 12.5637 170.322 13.478C170.322 13.5861 170.345 13.972 170.166 13.972C169.13 13.9729 166.661 10.0119 166.384 9.06124ZM167.144 5.44971L167.987 6.22048C169.106 7.24383 170.357 8.96524 170.357 10.5664C170.357 10.723 170.406 11.2766 170.177 11.2766C169.263 11.2766 167.517 7.76202 167.228 7.0509C167.215 7.02667 166.518 5.25679 166.867 5.29314C166.974 5.29314 167.071 5.37702 167.144 5.44971ZM171.73 15.9469L171.525 16.3924C171.489 16.4651 171.453 16.549 171.356 16.549C170.886 16.549 170.622 12.9971 170.622 12.5646C170.622 12.1788 170.912 8.3147 171.236 8.3147C171.392 8.3147 171.512 8.83196 171.549 8.94008L171.898 9.91495C172.235 10.8423 172.32 11.9971 172.32 12.985C172.321 13.985 172.128 15.0326 171.73 15.9469Z" fill="black"></path>
  <path fill-rule="evenodd" clip-rule="evenodd" d="M134.484 17.6572C134.484 12.9375 136.397 8.23089 139.961 5.0891C142.874 2.50092 146.762 0.898804 150.676 0.898804C159.583 0.898804 166.674 8.29054 166.674 17.1269C166.674 26.0825 159.331 33.6318 150.337 33.6318C141.585 33.6318 134.484 26.3491 134.484 17.6572ZM57.7016 2.42822C60.3261 2.42822 62.493 4.63149 62.493 7.2439C62.493 9.85631 60.3382 12.0829 57.7016 12.0829C55.078 12.0829 52.9102 9.86843 52.9102 7.2439C52.9102 4.63149 55.0771 2.42822 57.7016 2.42822Z" fill="black"></path>
  <path fill-rule="evenodd" clip-rule="evenodd" d="M91.7095 22.6881H99.282C99.1618 20.4858 98.1748 18.6441 95.718 18.6441C93.1056 18.6441 92.0469 20.3171 91.7095 22.6881ZM155.068 2.98178C155.321 2.74132 155.574 2.49993 155.84 2.25947L155.347 2.12713C154.384 1.86244 153.445 1.6574 152.445 1.5614L152.733 1.71798L153.325 1.98266C153.938 2.24735 154.503 2.63228 155.068 2.98178ZM151.157 7.95403C152.289 7.86922 153.372 7.73687 154.455 7.3883C154.094 6.54577 153.698 5.73865 153.168 4.98093C152.516 5.13751 151.879 5.24562 151.206 5.26985L151.157 7.95403ZM151.143 11.7818C152.362 11.7687 153.541 11.505 154.757 11.4565C155.068 11.4323 155.694 11.3838 155.694 10.9514C155.694 10.8675 155.671 10.7948 155.66 10.723L155.49 10.0371C155.334 9.35111 155.057 8.71268 154.78 8.07519C153.588 8.43587 152.372 8.58034 151.132 8.67727L151.143 11.7818ZM155.118 7.21961C155.985 6.9364 156.81 6.53965 157.573 6.03969C156.84 5.22046 156.057 4.4385 155.118 3.86066C154.717 4.18568 154.276 4.45702 153.805 4.66778L154.058 5.11327L154.551 5.95581C154.78 6.35284 154.948 6.78623 155.118 7.21961ZM158.212 5.71442C158.789 5.34297 159.326 4.9112 159.812 4.42638C158.873 3.57174 157.657 2.99389 156.466 2.54839C156.214 2.84943 155.924 3.102 155.647 3.36669C156.61 3.993 157.465 4.85977 158.212 5.71442ZM158.682 6.28014C159.499 7.23172 160.234 8.2793 160.811 9.39863C161.63 8.9289 162.437 8.41071 163.147 7.78534C162.4 6.71353 161.485 5.65383 160.414 4.89611C160.078 5.22138 159.715 5.51031 159.331 5.79923L158.682 6.28014Z" fill="white"></path>
  <path fill-rule="evenodd" clip-rule="evenodd" d="M145.112 2.47568C139.154 4.79917 134.927 10.9998 134.927 17.3794C134.927 25.9753 141.803 33.0781 150.445 33.0781C159.511 33.0781 166.24 25.5531 166.24 16.7055C166.24 13.7082 165.18 10.8665 163.602 8.36223L162.965 8.81985C162.363 9.24112 161.749 9.63815 161.099 9.98765C161.232 10.2645 161.376 10.5776 161.376 10.8908C161.376 11.011 161.339 11.2757 161.17 11.2757C160.845 11.2757 160.545 10.5776 160.436 10.3372C159.99 10.4816 159.51 10.723 159.027 10.723C158.92 10.723 158.703 10.6382 158.703 10.4937C158.703 10.1079 159.833 9.77143 160.122 9.63908C159.569 8.53186 158.942 7.54486 158.089 6.64175C157.233 7.12359 156.366 7.54486 155.44 7.88132C155.631 8.35105 155.824 8.80866 155.98 9.29051L156.28 10.2048C156.34 10.4099 156.414 10.6261 156.414 10.8432C156.414 11.7221 155.657 12.0474 154.921 12.1313L153.175 12.3475C152.501 12.4314 151.815 12.4677 151.129 12.4798L151.14 13.5507C151.14 13.779 151.14 14.1649 150.804 14.1649C150.491 14.1649 150.407 13.9002 150.395 13.6234L150.372 12.6001C150.047 12.6001 149.071 12.6364 149.071 12.1313C149.071 11.8787 149.348 11.806 149.554 11.806C149.745 11.806 149.938 11.8181 150.144 11.8181H150.444L150.421 8.77231L149.409 8.72385C149.27 8.41235 149.096 8.11752 148.891 7.84497L150.481 7.95402V5.25679C149.818 5.22044 149.205 5.08902 148.565 4.90728C148.361 5.18409 147.748 6.4367 147.435 6.4367C147.278 6.4367 147.182 6.26801 147.182 6.12355C147.182 5.60629 147.603 5.00421 147.879 4.59413C147.384 4.38314 146.919 4.10801 146.496 3.77583C146.074 4.04052 144.521 5.35279 144.328 5.35279C144.172 5.35279 144.101 5.14775 144.101 5.0154C144.101 4.49814 145.52 3.6556 145.917 3.39091C145.631 3.10199 145.366 2.78883 145.112 2.47568ZM148.941 1.64526H148.844C147.834 1.64526 146.918 1.89784 145.968 2.24734C146.161 2.49992 146.365 2.71707 146.605 2.90907C147.352 2.40392 148.124 2.019 148.941 1.64526Z" fill="white"></path>
  <path fill-rule="evenodd" clip-rule="evenodd" d="M149.833 2.03015C148.834 2.31907 147.978 2.76458 147.088 3.31819C147.485 3.57076 147.895 3.78792 148.315 3.97991L148.798 3.31819L149.411 2.57165L149.833 2.03015ZM149.001 4.24553C149.484 4.40117 149.964 4.52234 150.47 4.61833L150.519 2.47472C150.397 2.416 149.121 4.07683 149.001 4.24553ZM151.253 2.52411L151.24 4.5941C151.739 4.53282 152.234 4.44037 152.721 4.3173C152.288 3.65557 151.843 3.05442 151.253 2.52411ZM153.491 4.01719C153.823 3.83462 154.145 3.63361 154.454 3.41511C153.707 2.88573 152.998 2.50081 152.131 2.19884C152.504 2.66858 152.865 3.13831 153.201 3.61922L153.491 4.01719Z" fill="white"></path>
  <path fill-rule="evenodd" clip-rule="evenodd" d="M136.83 15.0922C136.625 15.2124 136.42 15.3326 136.216 15.465C136.386 13.3102 137.433 9.75829 139.202 8.42273C139.081 8.79553 138.997 9.15715 138.961 9.54207C137.842 11.2038 137.179 13.1303 136.83 15.0922ZM160.402 27.9017L160.234 27.4319C161.39 26.3489 162.353 25.0236 162.977 23.5566L163.856 22.8213C163.122 24.7468 162.123 26.6854 160.402 27.9017Z" fill="black"></path>
  <path fill-rule="evenodd" clip-rule="evenodd" d="M159.885 28.515C157.186 30.6577 154.058 32.0669 150.579 32.0669C142.081 32.0669 135.952 25.3499 135.952 17.0187C135.952 14.8276 139.733 14.8155 139.733 12.7809C139.733 11.7454 139.324 10.7584 139.324 9.73508C139.324 7.41159 141.442 5.56995 143.682 5.56995C145.993 5.56995 149.219 7.5924 149.219 10.1452C149.219 11.6737 148.029 12.3838 148.029 13.287C148.029 13.5759 148.076 13.8648 148.076 14.1537C148.076 14.4669 147.619 14.5265 147.583 14.8639L147.56 15.0447L147.354 15.3579L147.174 15.6831C147.09 15.8155 146.597 16.1892 146.44 16.3579C146.164 16.659 145.765 16.7195 145.369 16.7195C145.116 16.7195 144.851 16.7074 144.61 16.6468L143.949 16.467C143.839 16.4423 143.726 16.4301 143.613 16.4306C143.25 16.4306 142.83 16.6832 142.83 17.0812C142.83 17.7308 143.191 18.3692 143.166 19.0309L143.13 20.7775L143.153 20.8977L143.346 21.4746L143.49 21.9695C143.708 22.7757 144.972 22.7161 145.801 23.0395L146.511 23.3051C146.608 23.3396 146.728 23.4123 146.837 23.4123C147.271 23.4123 147.777 22.593 148.499 22.593C148.776 22.593 148.787 23.0152 149.029 22.9919L149.715 22.9323C149.858 22.9071 149.966 23.4859 149.966 23.6061C149.966 24.6164 149.269 25.9175 148.137 25.9175C147.667 25.9175 147.306 25.5447 146.874 25.5447C146.694 25.5447 145.356 25.9175 144.985 25.9781C144.455 26.062 143.925 26.1458 143.396 26.1458C142.986 26.1458 142.383 26.1589 142.034 25.9417L141.757 25.7619C141.71 25.7386 141.66 25.7022 141.601 25.7022C141.167 25.7022 140.951 26.7982 140.951 27.0853C140.951 28.4106 142.637 28.9036 143.672 28.9036C144.333 28.9036 145.019 28.8067 145.634 28.5411L147.5 27.7237C148.847 27.1338 151.135 26.8812 151.521 26.6752C151.857 26.4953 152.122 26.1822 152.122 25.7852C152.121 25.6191 152.101 25.4537 152.062 25.2921L151.895 24.6295L151.761 23.8233L151.652 22.9444C151.412 20.826 148.896 20.7178 148.896 19.14C148.896 18.4903 149.582 18.1166 149.606 17.5024C149.62 17.2498 149.654 17.0811 149.896 16.9609L150.137 16.8528C150.473 16.6962 150.137 15.9497 150.57 15.7931L150.799 15.7092C151.317 15.5284 150.847 14.4576 151.582 14.3606L152.172 14.2767L152.882 14.1323C153.749 13.9515 153.702 13.0847 154.725 12.6392L155.795 12.1695L156.194 11.9169L156.662 11.4239C157.084 11.0026 157.794 10.9178 158.36 10.9178C162.321 10.9178 165.222 13.9999 165.222 17.8762C165.222 20.8977 162.778 24.7385 159.455 24.7385C159.239 24.7385 159.022 24.7133 158.805 24.7133C158.263 24.7133 158.227 25.3154 158.227 25.7386C158.227 27.1347 159.913 28.0975 159.913 28.1217C159.913 28.2419 159.889 28.3622 159.889 28.4824V28.515H159.885Z" fill="black"></path>
</svg>
